<?xml version="1.0" encoding="UTF-8" standalone="no"?>
<!DOCTYPE svg PUBLIC "-//W3C//DTD SVG 1.1//EN" "http://www.w3.org/Graphics/SVG/1.1/DTD/svg11.dtd">
<svg width="100%" height="100%" viewBox="0 0 88 88" version="1.1" xmlns="http://www.w3.org/2000/svg" xmlns:xlink="http://www.w3.org/1999/xlink" xml:space="preserve" xmlns:serif="http://www.serif.com/" style="fill-rule:evenodd;clip-rule:evenodd;stroke-linejoin:round;stroke-miterlimit:2;">
    <g transform="matrix(0.171412,0,0,0.171412,43.8814,43.8814)">
        <g id="z72jMl" transform="matrix(1,0,0,1,-256,-256)">
            <ellipse cx="255.836" cy="40.635" rx="40.635" ry="24.381" style="fill:rgb(140,198,63);"/>
            <ellipse cx="255.836" cy="40.635" rx="40.635" ry="24.381" style="fill:rgb(0,146,69);"/>
            <path d="M255.832,16.254C251.555,16.254 247.513,16.76 243.642,17.495C260.087,20.617 272.087,29.736 272.087,40.636C272.087,51.536 260.087,60.655 243.642,63.777C247.513,64.512 251.556,65.018 255.832,65.018C278.274,65.018 296.467,54.102 296.467,40.637C296.467,27.172 278.274,16.254 255.832,16.254Z" style="fill:rgb(140,198,63);fill-rule:nonzero;"/>
            <path d="M475.26,390.095L231.448,390.095L190.815,422.603L150.178,390.095L36.403,390.095C36.403,452.933 87.342,503.873 150.18,503.873L361.482,503.873C424.32,503.873 475.26,452.933 475.26,390.095Z" style="fill:rgb(252,192,98);fill-rule:nonzero;"/>
            <path d="M393.99,389.927C393.99,452.65 343.05,503.873 280.212,503.873L361.482,503.873C424.32,503.873 475.26,452.649 475.26,389.927L393.99,389.927Z" style="fill:rgb(253,205,129);fill-rule:nonzero;"/>
            <path d="M117.673,389.927C117.673,454.741 168.613,503.873 231.451,503.873L150.181,503.873C87.343,503.873 36.403,454.74 36.403,389.927L117.673,389.927Z" style="fill:rgb(189,144,74);fill-rule:nonzero;"/>
            <rect x="44.53" y="227.558" width="422.605" height="121.902" style="fill:rgb(255,190,120);"/>
            <path d="M467.133,390.095L231.45,390.095L190.815,422.603L150.18,390.095L44.53,390.095L44.53,351.556L467.133,352.431L467.133,390.095Z" style="fill:rgb(247,147,30);fill-rule:nonzero;"/>
            <path d="M345.734,292.706L438.688,292.706C458.886,292.706 475.361,309.012 475.361,329.21L475.361,329.26C475.361,349.458 458.886,365.882 438.688,365.882L81.102,365.882C60.904,365.882 44.665,349.425 44.665,329.227L44.665,329.252C44.665,309.054 60.904,292.706 81.102,292.706L101.116,292.706" style="fill:rgb(166,124,82);fill-rule:nonzero;"/>
            <path d="M438.689,374.246L81.102,374.246C56.408,374.246 36.317,354.064 36.302,329.253L36.302,329.227C36.317,304.477 56.408,284.343 81.102,284.343L101.116,284.343L101.116,301.069L81.102,301.069C65.626,301.069 53.035,313.705 53.028,329.24C53.034,344.835 65.626,357.52 81.102,357.52L438.689,357.52C454.299,357.52 466.999,344.844 466.999,329.261C466.999,313.693 454.3,301.069 438.689,301.069L345.735,301.069L345.735,284.343L438.689,284.343C463.522,284.343 483.725,304.471 483.725,329.21C483.725,354.066 463.522,374.246 438.689,374.246Z" style="fill-rule:nonzero;"/>
            <path d="M272.085,268.663L308.657,305.234L345.228,268.663L466.999,268.663L466.999,243.574L44.665,243.574L44.665,268.663L272.085,268.663Z" style="fill:rgb(241,90,36);fill-rule:nonzero;"/>
            <path d="M466.999,243.574L190.815,243.574L133.927,300.462L77.038,243.574L44.665,243.574L44.665,219.53L466.999,219.53L466.999,243.574Z" style="fill:rgb(247,147,30);fill-rule:nonzero;"/>
            <path d="M475.26,219.428L36.403,219.428C36.403,156.59 87.343,105.65 150.181,105.65L361.483,105.65C424.32,105.651 475.26,156.591 475.26,219.428Z" style="fill:rgb(252,192,98);fill-rule:nonzero;"/>
            <path d="M361.482,105.583L288.339,105.583C351.177,105.583 402.117,156.807 402.117,219.529L475.26,219.529C475.26,156.807 424.32,105.583 361.482,105.583Z" style="fill:rgb(253,205,129);fill-rule:nonzero;"/>
            <path d="M150.18,105.583L223.323,105.583C160.485,105.583 109.545,154.716 109.545,219.529L36.403,219.529C36.403,154.716 87.343,105.583 150.18,105.583Z" style="fill:rgb(189,144,74);fill-rule:nonzero;"/>
            <path d="M361.482,512L150.18,512C82.961,512 28.275,457.314 28.275,390.095L28.275,381.968L153.029,381.968L190.815,412.195L228.597,381.968L483.386,381.968L483.386,390.095C483.388,457.314 428.701,512 361.482,512ZM44.839,398.223C49.002,452.697 94.659,495.746 150.181,495.746L361.482,495.746C417.004,495.746 462.66,452.695 466.824,398.223L234.299,398.223L190.816,433.011L147.327,398.223L44.839,398.223Z" style="fill-rule:nonzero;"/>
            <path d="M133.927,312.29L73.574,251.937L44.665,251.937L44.665,235.211L80.503,235.211L133.927,288.636L187.352,235.211L466.999,235.211L466.999,251.937L194.28,251.937L133.927,312.29Z" style="fill-rule:nonzero;"/>
            <rect x="44.665" y="260.3" width="32.407" height="16.726"/>
            <path d="M308.657,317.062L268.622,277.026L191.018,277.026L191.018,260.3L275.55,260.3L308.657,293.407L341.765,260.3L466.999,260.3L466.999,277.026L348.693,277.026L308.657,317.062Z" style="fill-rule:nonzero;"/>
            <path d="M361.482,97.524L264.195,97.524L264.195,72.677C287.417,70.103 304.595,56.957 304.595,40.634C304.595,24.311 287.417,11.166 264.195,8.593L264.195,0L247.469,0L247.469,8.593C224.247,11.167 207.069,24.313 207.069,40.635C207.069,56.957 224.247,70.104 247.469,72.678L247.469,97.524L150.182,97.524C82.963,97.524 28.277,152.211 28.277,219.429L28.277,227.556L483.389,227.556L483.389,219.429C483.388,152.21 428.701,97.524 361.482,97.524ZM223.324,40.635C223.324,32.962 237.226,24.381 255.832,24.381C274.438,24.381 288.34,32.963 288.34,40.635C288.34,48.307 274.437,56.89 255.832,56.89C237.227,56.89 223.324,48.307 223.324,40.635ZM44.839,211.302C49.002,156.828 94.659,113.778 150.181,113.778L361.482,113.778C417.004,113.778 462.66,156.829 466.824,211.303L44.839,211.302Z" style="fill-rule:nonzero;"/>
            <rect x="264.199" y="32.407" width="15.681" height="16.726" style="fill:rgb(255,29,37);"/>
            <rect x="68.709" y="187.123" width="60.632" height="16.726"/>
            <rect x="137.708" y="187.123" width="24.044" height="16.726"/>
            <rect x="223.429" y="187.123" width="88.857" height="16.726"/>
            <rect x="85.439" y="333.476" width="32.407" height="16.726"/>
            <rect x="117.846" y="316.75" width="15.681" height="16.726"/>
            <rect x="182.659" y="333.476" width="49.133" height="16.726"/>
            <path d="M272.558,284.343L165.929,284.343L165.929,301.069L230.743,301.069L230.743,308.387L247.469,308.387L247.469,301.069L272.558,301.069L272.558,284.343Z" style="fill-rule:nonzero;"/>
            <rect x="264.199" y="325.113" width="24.044" height="16.726"/>
            <path d="M438.689,284.343L345.735,284.343L345.735,301.069L438.689,301.069C446.002,301.069 452.677,303.84 457.706,308.387L434.592,308.387L434.592,325.113L466.69,325.113C466.891,326.467 466.998,327.852 466.998,329.261C466.998,344.843 454.299,357.52 438.688,357.52L354.097,357.52L354.097,349.157L337.37,349.157L337.37,357.52L81.102,357.52C65.626,357.52 53.035,344.835 53.028,329.24C53.034,313.705 65.626,301.069 81.102,301.069L101.116,301.069L101.116,284.343L81.102,284.343C56.408,284.343 36.317,304.477 36.302,329.227L36.302,329.253C36.317,354.064 56.408,374.246 81.102,374.246L438.689,374.246C463.522,374.246 483.725,354.066 483.725,329.21C483.725,304.471 463.522,284.343 438.689,284.343Z" style="fill-rule:nonzero;"/>
            <rect x="353.056" y="333.476" width="40.77" height="16.726"/>
            <rect x="245.382" y="405.607" width="122.309" height="16.726"/>
            <rect x="383.372" y="405.607" width="24.044" height="16.726"/>
            <rect x="231.792" y="439.06" width="40.77" height="16.726"/>
        </g>
        <g id="z72jMl1" serif:id="z72jMl">
        </g>
    </g>
</svg>
