<?xml version="1.0" encoding="UTF-8" standalone="no"?>
<!DOCTYPE svg PUBLIC "-//W3C//DTD SVG 1.1//EN" "http://www.w3.org/Graphics/SVG/1.1/DTD/svg11.dtd">
<svg width="100%" height="100%" viewBox="0 0 76 76" version="1.1" xmlns="http://www.w3.org/2000/svg" xmlns:xlink="http://www.w3.org/1999/xlink" xml:space="preserve" xmlns:serif="http://www.serif.com/" style="fill-rule:evenodd;clip-rule:evenodd;stroke-linejoin:round;stroke-miterlimit:2;">
    <g transform="matrix(0.147532,0,0,0.147532,37.7681,37.7681)">
        <g id="drink" transform="matrix(1,0,0,1,-256,-256)">
            <rect x="112.477" y="191.625" width="271.748" height="31.97" style="fill:rgb(253,208,137);"/>
            <rect x="112.477" y="191.625" width="223.793" height="31.97" style="fill:rgb(247,147,30);"/>
            <path d="M359.934,175.641C359.934,113.841 310.004,63.744 248.204,63.744C186.404,63.744 136.474,113.842 136.474,175.641L136.474,191.881L359.934,191.881L359.934,175.641Z" style="fill:rgb(0,169,157);fill-rule:nonzero;"/>
            <path d="M248.355,63.871C241.523,63.871 234.867,64.643 228.374,65.816C280.623,75.251 320.29,136.795 320.29,191.881L360.253,191.881C360.252,129.52 310.154,63.871 248.355,63.871Z" style="fill:rgb(102,203,196);fill-rule:nonzero;"/>
            <path d="M136.457,223.25L160.436,502.646L336.274,502.646L360.252,223.077" style="fill:rgb(247,147,30);fill-rule:nonzero;"/>
            <path d="M247.684,351.94L320.289,351.94L312.296,479.78L184.414,479.78L176.421,351.94L215.464,351.94" style="fill:rgb(191,22,28);fill-rule:nonzero;"/>
            <path d="M296.311,351.94L288.319,479.78L312.296,479.78L320.289,351.94L296.311,351.94Z" style="fill:rgb(255,29,37);fill-rule:nonzero;"/>
            <path d="M328.282,223.061L304.304,502.646L336.274,502.646L360.252,223.061L328.282,223.061Z" style="fill:rgb(253,208,137);fill-rule:nonzero;"/>
            <rect x="136.455" y="223.595" width="223.793" height="23.978" style="fill:rgb(102,203,196);"/>
            <rect x="136.455" y="223.595" width="191.822" height="23.978" style="fill:rgb(0,169,157);"/>
            <rect x="304.85" y="0.64" width="63.4" height="15.59" style="fill:rgb(255,147,30);"/>
            <rect x="376.566" y="0.64" width="31.18" height="15.59"/>
            <rect x="272.631" y="399.754" width="16.63" height="15.59"/>
            <rect x="256.001" y="448.604" width="16.63" height="15.59"/>
            <rect x="240.411" y="416.384" width="15.59" height="15.59"/>
            <path d="M247.684,360.255L311.991,360.255L311.537,367.53L296.534,367.53L296.534,383.121L310.562,383.121L308.482,416.38L289.258,416.38L289.258,431.97L307.507,431.97L304.973,472.505L191.737,472.505L191.217,464.19L200.913,464.19L200.913,448.6L190.242,448.6L187.188,399.75L200.913,399.75L200.913,384.16L186.213,384.16L184.718,360.255L215.464,360.255L215.464,344.665L168.123,344.665L177.091,488.095L319.62,488.095L328.586,344.665L247.684,344.665L247.684,360.255Z" style="fill-rule:nonzero;"/>
            <path d="M392.154,184.605L251.533,184.605L259.593,71.76C311.729,77.409 352.457,121.868 352.457,175.251L368.047,175.251C368.047,113.908 320.923,62.455 260.704,56.199L262.302,33.828C263.035,23.601 271.637,15.591 281.89,15.591L296.311,15.591L296.311,0L281.89,0C263.499,0 248.064,14.37 246.753,32.717L245.118,55.605C180.61,57.343 128.663,110.847 128.663,175.252L144.253,175.252C144.253,119.541 188.61,73.551 244,71.248L235.903,184.606L177.008,184.606L177.008,200.196L234.79,200.196L233.677,215.786L119.844,215.786L119.844,200.196L160.379,200.196L160.379,184.606L104.254,184.606L104.254,231.377L129.263,231.377L153.279,512L343.43,512L367.465,231.376L392.154,231.376L392.154,184.605ZM232.563,231.376L231.97,239.691L145.622,239.691L144.91,231.376L232.563,231.376ZM329.119,496.41L167.593,496.41L146.957,255.281L230.856,255.281L216.602,454.829L232.152,455.939L246.485,255.28L349.77,255.28L329.119,496.41ZM351.106,239.691L247.598,239.691L248.191,231.376L351.816,231.376L351.106,239.691ZM376.564,215.785L249.306,215.785L250.419,200.195L376.564,200.195L376.564,215.785Z" style="fill-rule:nonzero;"/>
            <path d="M328.084,159.661L312.494,159.661C312.494,132.638 291.338,111.502 264.315,111.502L264.315,95.912C299.652,95.911 328.084,124.323 328.084,159.661Z" style="fill:white;fill-rule:nonzero;"/>
        </g>
        <g id="drink1" serif:id="drink">
        </g>
    </g>
</svg>
