<?xml version="1.0" encoding="UTF-8" standalone="no"?>
<!DOCTYPE svg PUBLIC "-//W3C//DTD SVG 1.1//EN" "http://www.w3.org/Graphics/SVG/1.1/DTD/svg11.dtd">
<svg width="100%" height="100%" viewBox="0 0 76 76" version="1.1" xmlns="http://www.w3.org/2000/svg" xmlns:xlink="http://www.w3.org/1999/xlink" xml:space="preserve" xmlns:serif="http://www.serif.com/" style="fill-rule:evenodd;clip-rule:evenodd;stroke-linejoin:round;stroke-miterlimit:2;">
    <g transform="matrix(0.147532,0,0,0.147532,37.7681,37.7681)">
        <g id="soda" transform="matrix(1,0,0,1,-256,-256)">
            <rect x="215.874" y="46.645" width="80.267" height="24.081" style="fill:rgb(242,242,242);"/>
            <rect x="199.481" y="6.277" width="112.978" height="40.798" style="fill:rgb(255,29,37);"/>
            <path d="M368.373,472.049L368.373,183.095C368.373,121.035 318.063,70.724 256.002,70.724C193.941,70.724 143.63,121.034 143.63,183.095L143.63,472.048C143.63,489.779 158.004,504.154 175.736,504.154C191.232,504.154 204.162,493.176 207.178,478.575C207.951,474.831 211.069,472.048 214.893,472.048L216.845,472.048C220.668,472.048 223.787,474.831 224.56,478.575C227.575,493.177 240.507,504.154 256.002,504.154C271.497,504.154 284.429,493.176 287.444,478.575C288.217,474.831 291.335,472.048 295.159,472.048L297.111,472.048C300.934,472.048 304.053,474.831 304.826,478.575C307.841,493.177 320.773,504.154 336.268,504.154C353.998,504.154 368.373,489.78 368.373,472.049Z" style="fill:rgb(83,71,65);fill-rule:nonzero;"/>
            <rect x="143.63" y="263.364" width="224.742" height="128.429" style="fill:rgb(255,29,37);"/>
            <path d="M143.631,183.095C143.631,121.035 193.941,70.724 256.002,70.724C318.063,70.724 368.373,121.034 368.373,183.095" style="fill:white;fill-rule:nonzero;"/>
            <path d="M256.003,71.234C249.143,71.234 242.458,72.2 235.937,73.377C288.407,82.85 328.241,128.669 328.241,184.112L368.373,184.112C368.373,120.3 318.063,71.234 256.003,71.234Z" style="fill:rgb(242,242,242);fill-rule:nonzero;"/>
            <rect x="175.735" y="295.469" width="160.533" height="64.209" style="fill:white;"/>
            <rect x="199.481" y="320.104" width="112.978" height="15.691"/>
            <g>
                <rect x="295.722" y="407.976" width="16.737" height="15.691" style="fill:white;"/>
                <rect x="319.782" y="407.976" width="16.737" height="15.691" style="fill:white;"/>
                <rect x="272.708" y="407.976" width="15.691" height="15.691" style="fill:white;"/>
            </g>
            <g>
                <rect x="192.159" y="192.481" width="15.691" height="15.691" style="fill:rgb(198,156,109);"/>
                <rect x="216.219" y="215.495" width="15.691" height="15.691" style="fill:rgb(198,156,109);"/>
                <rect x="352.211" y="199.803" width="15.691" height="15.691" style="fill:rgb(198,156,109);"/>
                <rect x="255.97" y="174.697" width="15.691" height="16.737" style="fill:rgb(198,156,109);"/>
                <rect x="288.399" y="215.495" width="15.691" height="15.691" style="fill:rgb(198,156,109);"/>
                <rect x="159.73" y="232.232" width="15.691" height="15.691" style="fill:rgb(198,156,109);"/>
                <rect x="175.421" y="417.39" width="16.737" height="15.691" style="fill:rgb(198,156,109);"/>
                <rect x="192.159" y="432.036" width="15.691" height="15.691" style="fill:rgb(198,156,109);"/>
                <rect x="248.648" y="440.404" width="14.645" height="15.691" style="fill:rgb(198,156,109);"/>
                <rect x="352.211" y="448.773" width="15.691" height="15.691" style="fill:rgb(198,156,109);"/>
                <rect x="328.15" y="464.465" width="15.691" height="15.691" style="fill:rgb(198,156,109);"/>
                <rect x="144.038" y="448.773" width="15.691" height="15.691" style="fill:rgb(198,156,109);"/>
            </g>
            <path d="M202.436,139.299L189.39,130.568C204.307,108.286 228.776,94.984 255.975,94.984L255.975,110.675C234.006,110.676 214.434,121.376 202.436,139.299Z" style="fill-rule:nonzero;"/>
            <path d="M303.048,72.471L303.048,54.397L319.785,54.397L319.785,0L192.163,0L192.163,54.397L207.854,54.397L207.854,72.955C165.468,91.556 135.786,133.921 135.786,183.097L135.786,472.049C135.786,494.079 153.709,512 175.737,512C194.598,512 211.053,498.61 214.863,480.159C214.889,480.027 214.938,479.94 214.973,479.893L216.764,479.893C216.799,479.94 216.848,480.028 216.875,480.161C220.684,498.61 237.138,512 255.999,512C274.861,512 291.316,498.61 295.124,480.161C295.151,480.028 295.2,479.94 295.235,479.893L297.027,479.893C297.062,479.94 297.111,480.028 297.138,480.161C300.948,498.61 317.402,512 336.263,512C358.293,512 376.214,494.077 376.214,472.049L376.214,183.095C376.218,133.495 346.022,90.816 303.048,72.471ZM207.853,15.691L215.177,15.691L215.177,30.336L230.868,30.336L230.868,15.691L247.605,15.691L247.605,30.336L263.296,30.336L263.296,15.691L280.033,15.691L280.033,30.336L295.724,30.336L295.724,15.691L304.093,15.691L304.093,38.705L207.853,38.705L207.853,15.691ZM287.357,54.397L287.357,67.036C277.356,64.331 266.846,62.879 256.001,62.879C244.759,62.879 233.873,64.435 223.545,67.334L223.545,54.397L287.357,54.397ZM256.002,78.57C308.657,78.57 352.335,117.71 359.492,168.421L152.512,168.421C159.669,117.709 203.347,78.57 256.002,78.57ZM151.477,256.292L151.477,184.112L360.527,184.112L360.527,256.292L343.846,256.292L343.846,271.983L360.527,271.983L360.527,320.103L344.113,320.103L344.113,287.62L167.893,287.62L167.893,320.103L151.479,320.103L151.479,271.983L336.525,271.983L336.525,256.292L151.477,256.292ZM328.421,303.312L328.421,351.832L183.584,351.832L183.584,303.312L328.421,303.312ZM336.267,496.309C324.812,496.309 314.82,488.183 312.508,476.989C310.953,469.461 304.621,464.203 297.11,464.203L295.159,464.203C287.647,464.203 281.316,469.461 279.761,476.989C277.449,488.183 267.457,496.309 256.002,496.309C244.547,496.309 234.555,488.183 232.243,476.989C230.689,469.461 224.357,464.203 216.846,464.203L214.894,464.203C207.381,464.203 201.05,469.461 199.497,476.989C197.185,488.183 187.193,496.309 175.738,496.309C162.361,496.309 151.478,485.427 151.478,472.049L151.478,399.607L168.104,399.607L168.104,383.916L151.478,383.916L151.478,335.796L167.892,335.796L167.892,367.524L344.112,367.524L344.112,335.796L360.526,335.796L360.526,383.916L175.425,383.916L175.425,399.607L360.527,399.607L360.527,472.049C360.527,485.426 349.645,496.309 336.267,496.309Z" style="fill-rule:nonzero;"/>
        </g>
        <g id="soda1" serif:id="soda">
        </g>
    </g>
</svg>
