<?xml version="1.0" encoding="UTF-8" standalone="no"?>
<!DOCTYPE svg PUBLIC "-//W3C//DTD SVG 1.1//EN" "http://www.w3.org/Graphics/SVG/1.1/DTD/svg11.dtd">
<svg width="100%" height="100%" viewBox="0 0 76 76" version="1.1" xmlns="http://www.w3.org/2000/svg" xmlns:xlink="http://www.w3.org/1999/xlink" xml:space="preserve" xmlns:serif="http://www.serif.com/" style="fill-rule:evenodd;clip-rule:evenodd;stroke-linejoin:round;stroke-miterlimit:2;">
    <g transform="matrix(0.147532,0,0,0.147532,37.7681,37.7681)">
        <g id="french-fries" transform="matrix(1,0,0,1,-256,-256)">
            <path d="M414.755,182.23C416.09,168.215 416.141,154.025 413.715,140.157C400.562,64.969 334.954,7.821 256,7.821C177.046,7.821 111.438,64.969 98.286,140.157C95.86,154.025 95.912,168.215 97.246,182.23L127.908,504.178L384.093,504.178L414.755,182.23Z" style="fill:rgb(255,29,37);fill-rule:nonzero;"/>
            <path d="M248.053,223.673L248.053,72.465L272.037,72.465L272.037,223.673" style="fill:rgb(251,176,59);fill-rule:nonzero;"/>
            <g>
                <path d="M272.037,223.673L272.037,40.138L296.022,40.138L296.022,223.673" style="fill:rgb(250,190,120);fill-rule:nonzero;"/>
                <path d="M176.099,223.673L176.099,151.719L200.083,151.719L200.083,223.673" style="fill:rgb(250,190,120);fill-rule:nonzero;"/>
            </g>
            <path d="M200.083,223.673L200.083,47.438L224.068,47.438L224.068,223.673" style="fill:rgb(247,147,30);fill-rule:nonzero;"/>
            <path d="M163.573,140.157C174.86,75.636 224.817,24.519 288.644,11.279C278.091,9.089 267.202,7.821 256,7.821C177.046,7.821 111.438,64.968 98.286,140.157C95.86,154.025 95.912,168.22 97.246,182.236L127.908,504.19L193.195,504.19L162.533,182.236C161.199,168.22 161.148,154.025 163.573,140.157Z" style="fill:rgb(191,22,28);fill-rule:nonzero;"/>
            <path d="M151.071,184.046L151.071,72.465L176.099,72.465L176.099,223.673" style="fill:rgb(251,176,59);fill-rule:nonzero;"/>
            <path d="M128.129,168.404L128.129,112.092L151.071,112.092L151.071,184.046" style="fill:rgb(247,147,30);fill-rule:nonzero;"/>
            <path d="M415.946,200.731L384.093,200.731L352.069,256L159.931,256L127.908,200.731L95.802,200.731L95.802,168.404L135.914,168.404L175.942,223.673L336.058,223.673L368.08,168.404L415.946,168.404L415.946,200.731Z" style="fill:white;fill-rule:nonzero;"/>
            <path d="M320.007,223.673L320.007,63.08L343.991,63.08L343.991,208.031" style="fill:rgb(247,147,30);fill-rule:nonzero;"/>
            <rect x="119.903" y="448.138" width="264.186" height="24.016" style="fill:white;"/>
            <path d="M369.019,168.404L369.019,103.749L391.961,103.749L391.961,168.404" style="fill:rgb(251,176,59);fill-rule:nonzero;"/>
            <rect x="183.399" y="279.985" width="144.951" height="15.642" style="fill:white;"/>
            <rect x="215.727" y="312.312" width="80.297" height="15.642"/>
            <g>
                <rect x="143.773" y="408.251" width="16.685" height="15.642" style="fill:white;"/>
                <rect x="167.757" y="408.251" width="15.642" height="15.642" style="fill:white;"/>
                <rect x="191.742" y="408.251" width="16.685" height="15.642" style="fill:white;"/>
                <rect x="215.727" y="408.251" width="15.642" height="15.642" style="fill:white;"/>
            </g>
            <path d="M183.398,136.077L167.756,136.077L167.756,79.765L159.414,79.765L159.414,95.407L143.772,95.407L143.772,64.123L183.398,64.123L183.398,136.077Z" style="fill-rule:nonzero;"/>
            <path d="M421.418,138.81C414.694,100.369 394.512,65.217 364.593,39.83C334.322,14.145 295.756,0 256,0C216.244,0 177.679,14.145 147.407,39.83C117.488,65.216 97.306,100.368 90.582,138.81C88.261,152.081 87.894,166.526 89.461,182.972L120.797,512L391.205,512L422.54,182.972C424.107,166.526 423.738,152.08 421.418,138.81ZM105.989,141.504C112.085,106.656 130.388,74.783 157.527,51.756C184.975,28.467 219.947,15.641 256,15.641C292.053,15.641 327.025,28.467 354.474,51.756C368.991,64.074 380.976,78.924 389.92,95.406L360.676,95.406L360.676,165.08L352.334,179.75L352.334,55.78L311.664,55.78L311.664,216.373L304.364,216.373L304.364,31.795L263.694,31.795L263.694,55.78L279.336,55.78L279.336,47.438L288.721,47.438L288.721,216.374L279.336,216.374L279.336,64.123L240.752,64.123L240.752,216.374L231.367,216.374L231.367,40.138L192.783,40.138L192.783,136.077L208.425,136.077L208.425,55.78L215.725,55.78L215.725,216.373L208.425,216.373L208.425,143.376L167.755,143.376L167.755,193.975L159.413,179.305L159.413,104.792L120.83,104.792L120.83,160.061L104.205,160.061C104.373,153.523 104.964,147.365 105.989,141.504ZM383.618,111.049L383.618,160.061L376.318,160.061L376.318,111.049L383.618,111.049ZM336.692,71.422L336.692,207.258L331.508,216.373L327.307,216.373L327.307,71.422C327.306,71.422 336.692,71.422 336.692,71.422ZM263.695,79.765L263.695,216.373L256.395,216.373L256.395,79.765L263.695,79.765ZM192.784,159.018L192.784,216.373L183.399,216.373L183.399,159.018L192.784,159.018ZM143.772,120.434L143.772,160.061L136.472,160.061L136.472,120.434L143.772,120.434ZM131.196,456.22L380.804,456.22L380.009,464.562L131.991,464.562L131.196,456.22ZM135.019,496.358L133.481,480.205L378.52,480.205L376.982,496.358L135.019,496.358ZM382.294,440.578L129.707,440.578L107.56,208.031L123.359,208.031L155.382,264.343L356.62,264.343L388.644,208.031L404.442,208.031L382.294,440.578ZM406.968,181.488L405.93,192.389L379.543,192.389L347.519,248.7L164.481,248.7L132.458,192.388L106.07,192.388L105.032,181.487C104.845,179.524 104.691,177.599 104.564,175.703L139.37,175.703L171.393,232.015L340.609,232.015L372.632,175.703L407.437,175.703C407.309,177.6 407.156,179.526 406.968,181.488ZM399.261,160.062L399.261,116.184C402.229,124.381 404.497,132.85 406.011,141.505C407.036,147.366 407.627,153.523 407.795,160.062L399.261,160.062Z" style="fill-rule:nonzero;"/>
        </g>
        <g id="french-fries1" serif:id="french-fries">
        </g>
    </g>
</svg>
