<?xml version="1.0" encoding="UTF-8" standalone="no"?>
<!DOCTYPE svg PUBLIC "-//W3C//DTD SVG 1.1//EN" "http://www.w3.org/Graphics/SVG/1.1/DTD/svg11.dtd">
<svg width="100%" height="100%" viewBox="0 0 88 88" version="1.1" xmlns="http://www.w3.org/2000/svg" xmlns:xlink="http://www.w3.org/1999/xlink" xml:space="preserve" xmlns:serif="http://www.serif.com/" style="fill-rule:evenodd;clip-rule:evenodd;stroke-linejoin:round;stroke-miterlimit:2;">
    <g transform="matrix(0.171412,0,0,0.171412,43.8814,43.8814)">
        <g id="x8HkL1" transform="matrix(1,0,0,1,-256,-256)">
            <g>
                <rect x="111.546" y="199.171" width="288.913" height="28.088" style="fill:rgb(241,90,36);"/>
                <rect x="111.546" y="399.81" width="288.913" height="24.075" style="fill:rgb(241,90,36);"/>
                <rect x="111.546" y="303.502" width="288.913" height="48.151" style="fill:rgb(241,90,36);"/>
            </g>
            <path d="M376.378,447.957L424.529,447.957C424.529,478.983 399.378,504.133 368.353,504.133L143.647,504.133C112.621,504.133 87.471,478.982 87.471,447.957L313.895,447.957C322.285,447.957 329.086,454.758 329.086,463.148C329.086,471.144 334.549,478.554 342.441,479.838C352.497,481.474 361.187,473.755 361.187,464.007L361.187,463.148C361.186,454.759 367.988,447.957 376.378,447.957Z" style="fill:rgb(251,176,59);fill-rule:nonzero;"/>
            <path d="M143.647,447.501L87.47,447.501C87.47,478.964 112.621,504.134 143.647,504.134L199.824,504.134C168.797,504.134 143.647,478.964 143.647,447.501Z" style="fill:rgb(188,132,44);fill-rule:nonzero;"/>
            <path d="M368.353,447.501L424.53,447.501C424.53,478.964 399.379,504.134 368.353,504.134L312.176,504.134C343.201,504.134 368.353,478.964 368.353,447.501Z" style="fill:rgb(252,192,98);fill-rule:nonzero;"/>
            <path d="M328.226,464.008C328.226,473.756 336.916,481.474 346.972,479.839C354.864,478.555 360.327,471.145 360.327,463.15C360.327,454.76 367.128,447.959 375.518,447.959L416.375,447.959L416.375,424.43L95.494,423.884L95.494,447.959L313.035,447.959C321.425,447.959 328.226,454.76 328.226,463.15L328.226,464.008Z" style="fill:rgb(193,39,45);fill-rule:nonzero;"/>
            <path d="M416.504,303.504L304.15,303.504L304.15,319.554C304.15,323.986 300.557,327.579 296.125,327.579C291.693,327.579 288.1,331.172 288.1,335.604C288.1,340.036 284.507,343.629 280.075,343.629L272.05,343.629C267.618,343.629 264.025,340.036 264.025,335.604C264.025,331.172 260.432,327.579 256,327.579C251.568,327.579 247.975,323.986 247.975,319.554L247.975,303.504L95.495,303.504L95.495,286.405L416.504,286.405L416.504,303.504Z" style="fill:rgb(57,181,74);fill-rule:nonzero;"/>
            <path d="M304.15,351.655L392.428,351.655C405.724,351.655 416.503,362.434 416.503,375.73C416.503,389.026 405.724,399.805 392.428,399.805L119.57,399.805C106.274,399.805 95.495,389.026 95.495,375.73C95.495,362.434 106.274,351.655 119.57,351.655L247.973,351.655" style="fill:rgb(117,76,36);fill-rule:nonzero;"/>
            <path d="M392.428,352.064L360.327,352.064C373.623,352.064 384.402,362.365 384.402,375.661C384.402,388.957 373.623,399.258 360.327,399.258L392.428,399.258C405.724,399.258 416.503,388.957 416.503,375.661C416.503,362.365 405.724,352.064 392.428,352.064Z" style="fill:rgb(128,96,66);fill-rule:nonzero;"/>
            <path d="M127.595,375.661C127.595,362.365 138.374,352.064 151.67,352.064L119.57,352.064C106.274,352.064 95.495,362.365 95.495,375.661C95.495,388.957 106.274,399.258 119.57,399.258L151.671,399.258C138.374,399.258 127.595,388.957 127.595,375.661Z" style="fill:rgb(96,56,19);fill-rule:nonzero;"/>
            <path d="M207.671,224.114L388.415,224.114C403.927,224.114 416.375,236.008 416.375,251.521L416.375,251.678C416.375,267.19 403.927,279.699 388.415,279.699L123.583,279.699C108.071,279.699 95.454,267.1 95.454,251.588L95.454,251.646C95.454,236.134 108.071,224.115 123.583,224.115L135.307,224.115" style="fill:rgb(117,76,36);fill-rule:nonzero;"/>
            <path d="M416.504,199.176L211.86,199.176C200.78,199.176 191.797,208.159 191.797,219.239L191.797,235.289C191.797,246.369 182.814,255.352 171.734,255.352C160.654,255.352 151.671,246.369 151.671,235.289L151.671,219.239C151.671,208.159 142.688,199.176 131.608,199.176L95.495,199.176L95.495,175.1L416.504,175.1L416.504,199.176Z" style="fill:rgb(247,147,30);fill-rule:nonzero;"/>
            <path d="M424.528,175.871C424.528,82.531 349.075,7.341 255.999,7.341C162.923,7.341 87.47,82.531 87.47,175.871L424.528,175.871Z" style="fill:rgb(251,176,59);fill-rule:nonzero;"/>
            <path d="M432.107,184.261L79.722,184.261L79.722,176.395C79.722,129.179 98.012,84.845 131.331,51.563C164.618,18.312 208.884,0 256.029,0C303.174,0 347.311,18.312 380.598,51.564C413.917,84.847 432.107,129.18 432.107,176.396L432.107,184.261ZM95.522,168.53L416.476,168.53C414.566,128.48 398.094,91.149 369.609,62.693C339.292,32.409 298.945,15.731 256,15.731C213.055,15.731 172.707,32.409 142.39,62.693C113.904,91.148 97.433,128.48 95.522,168.53Z" style="fill:rgb(253,223,177);fill-rule:nonzero;"/>
            <path d="M280.075,8.87C272.19,7.74 264.196,7.148 256,7.148C162.924,7.148 87.47,82.53 87.47,175.87L135.621,175.87C135.621,90.921 198.435,20.581 280.075,8.87Z" style="fill:rgb(188,132,44);fill-rule:nonzero;"/>
            <path d="M127.595,251.907C127.595,236.395 140.171,224.115 155.683,224.115L123.582,224.115C108.07,224.115 95.494,236.395 95.494,251.907C95.494,267.419 108.07,279.699 123.582,279.699L155.683,279.699C140.171,279.699 127.595,267.419 127.595,251.907Z" style="fill:rgb(96,56,19);fill-rule:nonzero;"/>
            <path d="M380.39,251.907C380.39,236.395 367.814,224.115 352.302,224.115L384.403,224.115C399.915,224.115 412.491,236.395 412.491,251.907C412.491,267.419 399.915,279.699 384.403,279.699L352.302,279.699C367.814,279.699 380.39,267.419 380.39,251.907Z" style="fill:rgb(128,96,66);fill-rule:nonzero;"/>
            <path d="M231.923,8.87C239.808,7.739 247.802,7.148 255.998,7.148C349.074,7.148 424.528,82.53 424.528,175.87L376.377,175.87C376.378,90.921 313.563,20.581 231.923,8.87Z" style="fill:rgb(252,192,98);fill-rule:nonzero;"/>
            <path id="SVGCleanerId_0" d="M432.107,184.261L79.722,184.261L79.722,176.395C79.722,129.179 98.012,84.845 131.331,51.563C164.618,18.312 208.884,0 256.029,0C303.174,0 347.311,18.312 380.598,51.564C413.917,84.847 432.107,129.18 432.107,176.396L432.107,184.261ZM95.522,168.53L416.476,168.53C414.566,128.48 398.094,91.149 369.609,62.693C339.292,32.409 298.945,15.731 256,15.731C213.055,15.731 172.707,32.409 142.39,62.693C113.904,91.148 97.433,128.48 95.522,168.53Z" style="fill-rule:nonzero;"/>
            <path id="SVGCleanerId_0_1_" d="M432.107,184.261L79.722,184.261L79.722,176.395C79.722,129.179 98.012,84.845 131.331,51.563C164.618,18.312 208.884,0 256.029,0C303.174,0 347.311,18.312 380.598,51.564C413.917,84.847 432.107,129.18 432.107,176.396L432.107,184.261ZM95.522,168.53L416.476,168.53C414.566,128.48 398.094,91.149 369.609,62.693C339.292,32.409 298.945,15.731 256,15.731C213.055,15.731 172.707,32.409 142.39,62.693C113.904,91.148 97.433,128.48 95.522,168.53Z" style="fill-rule:nonzero;"/>
            <path d="M171.735,263.218C156.335,263.218 143.806,250.689 143.806,235.289L143.806,219.239C143.806,212.513 138.335,207.042 131.609,207.042L95.495,207.042L95.495,191.31L131.609,191.31C147.009,191.31 159.538,203.839 159.538,219.239L159.538,235.289C159.538,242.015 165.009,247.486 171.735,247.486C178.461,247.486 183.932,242.015 183.932,235.289L183.932,219.239C183.932,203.839 196.461,191.31 211.861,191.31L416.504,191.31L416.504,207.041L211.86,207.041C205.134,207.041 199.663,212.512 199.663,219.238L199.663,235.288C199.663,250.689 187.135,263.218 171.735,263.218Z" style="fill-rule:nonzero;"/>
            <g>
                <rect x="119.58" y="134.965" width="15.731" height="15.731" style="fill:rgb(253,223,177);"/>
                <rect x="135.311" y="111.893" width="16.78" height="15.731" style="fill:rgb(253,223,177);"/>
                <rect x="224.456" y="134.965" width="14.683" height="15.731" style="fill:rgb(253,223,177);"/>
                <rect x="183.554" y="120.283" width="15.731" height="15.731" style="fill:rgb(253,223,177);"/>
                <rect x="239.139" y="79.381" width="16.78" height="15.731" style="fill:rgb(253,223,177);"/>
                <rect x="295.772" y="120.283" width="16.78" height="15.731" style="fill:rgb(253,223,177);"/>
                <rect x="335.625" y="72.04" width="16.78" height="15.731" style="fill:rgb(253,223,177);"/>
                <rect x="281.089" y="55.264" width="14.683" height="15.731" style="fill:rgb(253,223,177);"/>
                <rect x="360.795" y="134.965" width="15.731" height="15.731" style="fill:rgb(253,223,177);"/>
                <rect x="392.258" y="95.112" width="16.78" height="15.731" style="fill:rgb(253,223,177);"/>
                <rect x="272.699" y="160.136" width="14.683" height="15.731" style="fill:rgb(253,223,177);"/>
                <rect x="176.213" y="55.264" width="15.731" height="15.731" style="fill:rgb(253,223,177);"/>
                <rect x="119.58" y="72.04" width="15.731" height="15.731" style="fill:rgb(253,223,177);"/>
                <rect x="191.944" y="79.381" width="15.731" height="15.731" style="fill:rgb(253,223,177);"/>
                <rect x="224.456" y="23.801" width="14.683" height="15.731" style="fill:rgb(253,223,177);"/>
            </g>
            <path d="M280.075,351.495L272.05,351.495C263.288,351.495 256.159,344.367 256.159,335.604C256.159,335.516 256.088,335.445 256,335.445C247.238,335.445 240.109,328.317 240.109,319.554L240.109,311.369L95.495,311.369L95.495,295.638L255.84,295.638L255.84,319.554C255.84,319.642 255.911,319.713 255.999,319.713C264.761,319.713 271.89,326.841 271.89,335.604C271.89,335.692 271.961,335.763 272.049,335.763L280.074,335.763C280.161,335.763 280.233,335.692 280.233,335.604C280.233,326.842 287.361,319.713 296.124,319.713C296.212,319.713 296.283,319.642 296.283,319.554L296.283,295.638L416.502,295.638L416.502,311.369L312.016,311.369L312.016,319.554C312.016,328.316 304.888,335.445 296.125,335.445C296.037,335.445 295.966,335.516 295.966,335.604C295.966,344.367 288.837,351.495 280.075,351.495Z" style="fill-rule:nonzero;"/>
            <g>
                <rect x="95.458" y="320.596" width="39.853" height="15.731" style="fill:rgb(140,198,63);"/>
                <rect x="143.701" y="320.596" width="39.853" height="15.731" style="fill:rgb(140,198,63);"/>
                <rect x="191.944" y="320.596" width="39.853" height="15.731" style="fill:rgb(140,198,63);"/>
                <rect x="328.283" y="320.596" width="39.853" height="15.731" style="fill:rgb(140,198,63);"/>
                <rect x="376.527" y="320.596" width="39.853" height="15.731" style="fill:rgb(140,198,63);"/>
            </g>
            <path d="M368.353,512L143.647,512C108.334,512 79.605,483.271 79.605,447.958L79.605,440.092L313.895,440.092C326.609,440.092 336.952,450.436 336.952,463.149C336.952,467.538 339.918,471.459 343.704,472.075C346.186,472.478 348.574,471.83 350.433,470.248C352.268,468.687 353.321,466.413 353.321,464.008L353.321,463.149C353.321,450.435 363.665,440.092 376.378,440.092L432.396,440.092L432.396,447.958C432.394,483.27 403.665,512 368.353,512ZM95.976,455.823C99.743,478.733 119.685,496.267 143.647,496.267L368.353,496.267C392.314,496.267 412.256,478.733 416.024,455.823L376.379,455.823C372.339,455.823 369.053,459.11 369.053,463.149L369.053,464.008C369.053,471.035 365.981,477.677 360.625,482.231C355.271,486.784 348.181,488.742 341.179,487.602C329.801,485.751 321.221,475.238 321.221,463.149C321.221,459.109 317.935,455.823 313.895,455.823L95.976,455.823Z" style="fill-rule:nonzero;"/>
            <rect x="95.458" y="417.083" width="320.922" height="15.731"/>
            <rect x="239.139" y="248.232" width="16.78" height="15.731"/>
            <rect x="376.527" y="248.232" width="15.731" height="15.731"/>
            <path d="M388.415,216.773L207.671,216.773L207.671,232.504L295.767,232.504L295.767,238.797L311.498,238.797L311.498,232.504L388.414,232.504C399.754,232.504 407.984,240.502 407.984,251.521L407.984,251.678C407.984,263.08 399.205,272.358 388.414,272.358L351.351,272.358L351.351,263.968L335.62,263.968L335.62,272.358L135.307,272.358L135.307,263.968L119.576,263.968L119.576,271.947C110.157,270.021 102.81,261.498 102.796,251.618C102.813,240.899 111.938,232.505 123.584,232.505L135.308,232.505L135.308,216.774L123.584,216.774C103.126,216.774 87.095,232.061 87.065,251.589L87.065,251.646C87.098,271.407 103.809,288.089 123.584,288.089L388.417,288.089C407.882,288.089 423.718,271.756 423.718,251.678L423.718,251.521C423.717,231.712 408.54,216.773 388.415,216.773Z" style="fill-rule:nonzero;"/>
            <rect x="119.58" y="368.84" width="15.731" height="15.731"/>
            <rect x="239.139" y="368.84" width="16.78" height="15.731"/>
            <path d="M392.428,343.789L304.15,343.789L304.15,359.52L335.62,359.52L335.62,367.794L351.351,367.794L351.351,359.52L392.427,359.52C401.365,359.52 408.637,366.792 408.637,375.73C408.637,384.668 401.365,391.94 392.427,391.94L391.204,391.94L391.204,383.526L375.473,383.526L375.473,391.94L190.891,391.94L190.891,383.526L175.16,383.526L175.16,391.94L119.571,391.94C110.632,391.94 103.36,384.668 103.36,375.73C103.36,366.791 110.632,359.52 119.571,359.52L247.974,359.52L247.974,343.789L119.571,343.789C101.958,343.789 87.629,358.118 87.629,375.73C87.629,393.342 101.958,407.671 119.571,407.671L392.428,407.671C410.04,407.671 424.369,393.342 424.369,375.73C424.369,358.118 410.04,343.789 392.428,343.789Z" style="fill-rule:nonzero;"/>
        </g>
        <g id="x8HkL11" serif:id="x8HkL1">
        </g>
    </g>
</svg>
