<?xml version="1.0" encoding="UTF-8" standalone="no"?>
<!DOCTYPE svg PUBLIC "-//W3C//DTD SVG 1.1//EN" "http://www.w3.org/Graphics/SVG/1.1/DTD/svg11.dtd">
<svg width="100%" height="100%" viewBox="0 0 76 76" version="1.1" xmlns="http://www.w3.org/2000/svg" xmlns:xlink="http://www.w3.org/1999/xlink" xml:space="preserve" xmlns:serif="http://www.serif.com/" style="fill-rule:evenodd;clip-rule:evenodd;stroke-linejoin:round;stroke-miterlimit:2;">
    <g transform="matrix(0.147532,0,0,0.147532,37.7681,37.7681)">
        <g id="salad">
            <g transform="matrix(1,0,0,1,-256,-256)">
                <rect x="143.938" y="35.887" width="56.035" height="48.025" style="fill:rgb(140,198,63);"/>
                <rect x="143.938" y="59.896" width="56.035" height="24.012" style="fill:rgb(217,224,33);"/>
                <rect x="199.973" y="19.876" width="304.162" height="80.044" style="fill:rgb(140,198,63);"/>
                <path d="M377.247,63.336C365.897,61.066 354.212,61.066 342.862,63.336L337.226,64.463C325.876,66.733 314.191,66.733 302.841,64.463L297.205,63.336C285.855,61.066 274.17,61.066 262.82,63.336L257.184,64.463C245.834,66.733 234.149,66.733 222.799,64.463L199.971,59.897L199.971,99.918L504.131,99.918L504.131,59.897C488.544,65.092 471.693,65.092 456.106,59.897" style="fill:rgb(217,224,33);fill-rule:nonzero;"/>
                <rect x="376.063" y="19.876" width="80.044" height="80.044" style="fill:white;"/>
                <g>
                    <path d="M207.975,324.035L207.975,215.979C207.975,209.348 213.351,203.972 219.982,203.972L227.986,203.972C234.617,203.972 239.993,198.596 239.993,191.965C239.993,185.334 245.369,179.958 252,179.958L276.013,179.958C282.644,179.958 288.02,185.334 288.02,191.965C288.02,198.596 293.396,203.972 300.027,203.972C311.079,203.972 320.038,212.931 320.038,223.983L320.038,324.036" style="fill:rgb(57,181,74);fill-rule:nonzero;"/>
                    <path d="M39.889,322.429L17.164,299.704C12.476,295.016 12.476,287.413 17.164,282.725L22.824,277.065C27.512,272.377 27.512,264.774 22.824,260.086C18.136,255.398 18.136,247.795 22.824,243.107L39.803,226.128C44.491,221.44 52.094,221.44 56.782,226.128C61.47,230.816 69.073,230.816 73.761,226.128C81.575,218.314 94.245,218.314 102.06,226.128L115.925,239.993C115.925,239.993 80.609,297.644 135.936,324.037L39.889,322.429Z" style="fill:rgb(57,181,74);fill-rule:nonzero;"/>
                    <path d="M480.116,322.429L502.841,299.704C507.529,295.016 507.529,287.413 502.841,282.725L497.181,277.065C492.493,272.377 492.493,264.774 497.181,260.086C501.869,255.398 501.869,247.795 497.181,243.107L480.202,226.128C475.514,221.44 467.911,221.44 463.223,226.128C458.535,230.816 450.932,230.816 446.244,226.128C438.43,218.314 425.76,218.314 417.945,226.128L404.08,239.993C404.08,239.993 439.396,297.644 384.069,324.037L480.116,322.429Z" style="fill:rgb(57,181,74);fill-rule:nonzero;"/>
                </g>
                <g>
                    <g transform="matrix(-0.7071,-0.7071,0.7071,-0.7071,-82.3546,552.671)">
                        <rect x="57.277" y="277.384" width="32.016" height="32.016" style="fill:rgb(241,90,36);"/>
                    </g>
                    <g transform="matrix(-0.7071,-0.7071,0.7071,-0.7071,254.539,692.197)">
                        <rect x="254.62" y="277.374" width="32.016" height="32.016" style="fill:rgb(241,90,36);"/>
                    </g>
                    <g transform="matrix(-0.7071,-0.7071,0.7071,-0.7071,555.168,816.733)">
                        <rect x="430.727" y="277.379" width="32.016" height="32.016" style="fill:rgb(241,90,36);"/>
                    </g>
                </g>
                <path d="M339.186,324.037C322.913,314.233 312.029,296.392 312.029,276.01C312.029,245.066 337.115,219.98 368.059,219.98C399.003,219.98 424.089,245.066 424.089,276.01C424.089,296.392 413.205,314.233 396.932,324.037" style="fill:rgb(255,29,37);fill-rule:nonzero;"/>
                <circle cx="368.057" cy="276.008" r="32.016" style="fill:rgb(255,74,81);"/>
                <circle cx="368.057" cy="276.008" r="16.009" style="fill:rgb(255,119,124);"/>
                <path id="SVGCleanerId_0" d="M131.077,324.037C114.804,314.233 103.92,296.392 103.92,276.01C103.92,245.066 129.006,219.98 159.95,219.98C190.894,219.98 215.98,245.066 215.98,276.01C215.98,296.392 205.096,314.233 188.823,324.037" style="fill:rgb(255,29,37);fill-rule:nonzero;"/>
                <path id="SVGCleanerId_0_1_" d="M131.077,324.037C114.804,314.233 103.92,296.392 103.92,276.01C103.92,245.066 129.006,219.98 159.95,219.98C190.894,219.98 215.98,245.066 215.98,276.01C215.98,296.392 205.096,314.233 188.823,324.037" style="fill:rgb(255,29,37);fill-rule:nonzero;"/>
                <circle cx="159.951" cy="276.008" r="32.016" style="fill:rgb(255,74,81);"/>
                <path d="M336.042,492.124L175.958,492.124C83.126,492.124 7.87,416.868 7.87,324.035L504.13,324.035C504.13,416.868 428.874,492.124 336.042,492.124Z" style="fill:rgb(212,20,90);fill-rule:nonzero;"/>
                <path d="M456.105,325.018C456.105,417.36 380.849,491.863 288.017,491.863L336.042,491.863C428.874,491.863 504.13,417.36 504.13,325.018L456.105,325.018Z" style="fill:rgb(221,67,123);fill-rule:nonzero;"/>
                <path d="M55.895,325.018C55.895,420.508 131.151,491.863 223.983,491.863L175.958,491.863C83.126,491.863 7.87,420.508 7.87,325.018L55.895,325.018Z" style="fill:rgb(159,15,68);fill-rule:nonzero;"/>
                <rect x="15.877" y="356.052" width="480.252" height="24.012" style="fill:white;"/>
                <rect x="152.69" y="235.829" width="15.74" height="16.789"/>
                <g transform="matrix(-0.6428,-0.766,0.766,-0.6428,36.3314,519.914)">
                    <rect x="131.376" y="243.617" width="16.008" height="15.74"/>
                </g>
                <g transform="matrix(-0.9848,-0.1737,0.1737,-0.9848,207.887,559.091)">
                    <rect x="120.404" y="262.579" width="16.009" height="15.74"/>
                </g>
                <g transform="matrix(-0.5,-0.866,0.866,-0.5,-54.5387,552.533)">
                    <rect x="124.361" y="284.006" width="15.74" height="16.007"/>
                </g>
                <g transform="matrix(-0.9397,-0.342,0.342,-0.9397,184.351,644.698)">
                    <rect x="141.141" y="298.093" width="15.74" height="16.008"/>
                </g>
                <g transform="matrix(-0.342,-0.9397,0.9397,-0.342,-58.2927,571.367)">
                    <rect x="162.892" y="298.222" width="16.008" height="15.74"/>
                </g>
                <g transform="matrix(-0.866,-0.5,0.5,-0.866,204.189,638.74)">
                    <rect x="179.668" y="284.143" width="16.007" height="15.74"/>
                </g>
                <g transform="matrix(-0.1737,-0.9848,0.9848,-0.1737,-41.6109,506.011)">
                    <rect x="183.61" y="262.458" width="15.74" height="16.009"/>
                </g>
                <g transform="matrix(-0.766,-0.6428,0.6428,-0.766,157.151,560.14)">
                    <rect x="172.649" y="243.465" width="15.74" height="16.008"/>
                </g>
                <rect x="359.41" y="235.829" width="15.74" height="16.789"/>
                <g transform="matrix(-0.6428,-0.766,0.766,-0.6428,378.241,679.306)">
                    <rect x="339.492" y="243.599" width="16.008" height="15.74"/>
                </g>
                <g transform="matrix(-0.9848,-0.1737,0.1737,-0.9848,620.951,595.257)">
                    <rect x="328.518" y="262.587" width="16.009" height="15.74"/>
                </g>
                <g transform="matrix(-0.5,-0.866,0.866,-0.5,257.625,732.766)">
                    <rect x="332.471" y="284.01" width="15.74" height="16.008"/>
                </g>
                <g transform="matrix(-0.9397,-0.342,0.342,-0.9397,588.038,715.859)">
                    <rect x="349.257" y="298.085" width="15.74" height="16.008"/>
                </g>
                <g transform="matrix(-0.342,-0.9397,0.9397,-0.342,220.979,766.918)">
                    <rect x="370.993" y="298.222" width="16.008" height="15.74"/>
                </g>
                <g transform="matrix(-0.866,-0.5,0.5,-0.866,592.523,742.808)">
                    <rect x="387.777" y="284.149" width="16.008" height="15.74"/>
                </g>
                <g transform="matrix(-0.1737,-0.9848,0.9848,-0.1737,202.645,710.946)">
                    <rect x="391.714" y="262.453" width="15.74" height="16.009"/>
                </g>
                <g transform="matrix(-0.766,-0.6428,0.6428,-0.766,524.666,693.927)">
                    <rect x="380.755" y="243.472" width="15.74" height="16.008"/>
                </g>
                <rect x="47.751" y="244.223" width="15.74" height="15.74"/>
                <rect x="455.949" y="244.223" width="15.74" height="15.74"/>
                <rect x="255.525" y="220.088" width="16.789" height="15.74"/>
                <rect x="232.44" y="252.618" width="15.74" height="15.74"/>
                <g>
                    <rect x="47.751" y="100.463" width="15.74" height="15.74" style="fill:rgb(217,224,33);"/>
                    <rect x="63.496" y="123.549" width="15.74" height="32.53" style="fill:rgb(217,224,33);"/>
                    <rect x="23.616" y="163.424" width="15.74" height="24.135" style="fill:rgb(217,224,33);"/>
                    <rect x="87.631" y="180.213" width="15.74" height="15.74" style="fill:rgb(217,224,33);"/>
                </g>
                <path d="M493.506,316.166L504.403,305.27C512.152,297.521 512.152,284.911 504.403,277.16L498.743,271.501C497.961,270.719 497.532,269.681 497.532,268.577C497.532,267.473 497.962,266.433 498.743,265.651C506.493,257.902 506.493,245.292 498.743,237.541L481.764,220.562C478.009,216.807 473.019,214.74 467.709,214.74C462.399,214.74 457.409,216.807 453.654,220.562C452.041,222.175 449.417,222.175 447.804,220.562C436.934,209.692 419.246,209.692 408.375,220.562L405.009,223.928C394.568,216.499 381.82,212.111 368.059,212.111C352.857,212.111 338.885,217.455 327.904,226.354L327.904,223.984C327.904,208.611 315.397,196.104 300.023,196.104C297.743,196.104 295.888,194.248 295.888,191.967C295.888,181.007 286.972,172.09 276.011,172.09L251.999,172.09C241.039,172.09 232.122,181.006 232.122,191.967C232.122,194.247 230.266,196.104 227.985,196.104L219.981,196.104C209.022,196.104 200.105,205.02 200.105,215.98L200.105,226.355C189.124,217.458 175.152,212.112 159.95,212.112C143.126,212.112 127.811,218.658 116.388,229.323L107.628,220.562C102.361,215.295 95.361,212.396 87.913,212.396C80.465,212.396 73.465,215.296 68.198,220.562C66.586,222.176 63.962,222.176 62.348,220.562C54.599,212.814 41.989,212.813 34.238,220.562L17.259,237.541C9.509,245.29 9.509,257.9 17.259,265.651C18.041,266.433 18.47,267.471 18.47,268.577C18.47,269.682 18.04,270.72 17.259,271.501L11.599,277.161C3.85,284.91 3.85,297.52 11.599,305.271L22.496,316.166L0,316.166L0,324.036C0,421.059 78.935,499.994 175.958,499.994L336.042,499.994C433.065,499.994 512,421.059 512,324.036L512,316.166L493.506,316.166ZM436.675,231.691C440.43,235.446 445.42,237.513 450.73,237.513C456.04,237.513 461.03,235.446 464.785,231.691C466.398,230.078 469.021,230.078 470.634,231.691L487.613,248.67C489.226,250.283 489.226,252.907 487.613,254.52C483.858,258.275 481.791,263.265 481.791,268.575C481.791,273.884 483.858,278.875 487.613,282.63L493.273,288.289C494.886,289.902 494.886,292.526 493.273,294.139L471.246,316.166L457.722,316.166L480.496,293.392L446.727,259.623L431.918,274.432C431.547,259.242 425.857,245.357 416.633,234.562L419.505,231.69C424.239,226.957 431.941,226.957 436.675,231.691ZM435.732,316.166L417.833,316.166C420.562,312.8 422.929,309.173 424.905,305.339L435.732,316.166ZM435.218,293.392L446.727,281.883L458.236,293.392L446.727,304.901L435.218,293.392ZM368.059,227.85C380.909,227.85 392.592,232.919 401.236,241.15L402.918,242.832C411.149,251.476 416.218,263.159 416.218,276.009C416.218,282.063 415.097,287.904 413.023,293.326L412.959,293.39L412.988,293.419C409.453,302.601 403.125,310.54 394.618,316.162L341.5,316.162C327.945,307.203 319.899,292.355 319.899,276.007C319.899,249.455 341.504,227.85 368.059,227.85ZM312.185,243.993L312.795,243.993C312.59,244.345 312.384,244.695 312.185,245.052L312.185,243.993ZM219.981,211.843L227.985,211.843C238.945,211.843 247.862,202.927 247.862,191.966C247.862,189.686 249.718,187.829 251.999,187.829L276.011,187.829C278.291,187.829 280.147,189.685 280.147,191.966C280.147,202.926 289.063,211.843 300.023,211.843C306.717,211.843 312.164,217.289 312.164,223.983L312.164,235.824L295.397,235.824L295.397,251.564L309.031,251.564C305.899,259.099 304.161,267.354 304.161,276.011C304.161,290.977 309.236,305.003 318.286,316.166L281.632,316.166L304.406,293.392L270.637,259.623L236.868,293.392L259.642,316.166L209.727,316.166C218.778,305.003 223.852,290.977 223.852,276.011C223.852,264.8 220.94,254.259 215.848,245.09L215.848,235.824L222.994,235.824L222.994,220.084L215.848,220.084L215.848,215.979C215.845,213.698 217.701,211.843 219.981,211.843ZM270.636,304.901L259.127,293.392L270.636,281.883L282.145,293.392L270.636,304.901ZM159.95,227.85C186.506,227.85 208.11,249.454 208.11,276.01C208.11,292.358 200.065,307.206 186.509,316.165L133.39,316.165C119.835,307.206 111.789,292.358 111.789,276.01C111.791,249.455 133.394,227.85 159.95,227.85ZM100.597,299.84C102.949,305.731 106.172,311.227 110.174,316.165L84.273,316.165L100.597,299.84ZM73.278,304.901L61.769,293.392L73.278,281.883L84.787,293.392L73.278,304.901ZM22.729,294.139C21.116,292.526 21.116,289.902 22.729,288.29L28.389,282.63C32.144,278.875 34.211,273.885 34.211,268.575C34.211,263.265 32.144,258.275 28.389,254.52C26.776,252.907 26.776,250.283 28.389,248.67L45.368,231.691C46.981,230.079 49.605,230.078 51.218,231.691C54.973,235.446 59.963,237.513 65.273,237.513C70.583,237.513 75.573,235.446 79.328,231.691C81.622,229.398 84.67,228.135 87.913,228.135C91.156,228.135 94.205,229.398 96.498,231.691L106.251,241.444C99.809,251.417 96.051,263.28 96.051,276.01C96.051,278.28 96.173,280.527 96.403,282.747L73.279,259.623L39.509,293.392L62.283,316.167L44.755,316.167L22.729,294.139ZM496.069,331.906C495.804,337.381 495.256,342.785 494.451,348.104L17.549,348.104C16.744,342.785 16.196,337.382 15.931,331.906L496.069,331.906ZM20.754,363.844L491.246,363.844C490.52,366.673 489.717,369.472 488.842,372.239L23.158,372.239C22.283,369.472 21.48,366.673 20.754,363.844ZM336.042,484.254L175.958,484.254C110.329,484.254 53.791,444.593 29.054,387.979L482.946,387.979C458.21,444.592 401.671,484.254 336.042,484.254Z" style="fill-rule:nonzero;"/>
                <circle cx="159.951" cy="276.008" r="16.009" style="fill:rgb(255,119,124);"/>
                <path d="M192.101,12.006L192.101,107.788L512,107.788L512,12.006L192.101,12.006ZM496.26,54.165C483.495,57.561 471.158,55.714 464.34,54.097L464.34,27.746L496.26,27.746L496.26,54.165ZM408.725,67.93L408.725,92.048L384.59,92.048L384.59,27.746L448.6,27.746L448.6,92.048L424.465,92.048L424.465,67.93L408.725,67.93ZM368.85,27.746L368.85,54.176C359.671,53.321 350.448,53.793 341.319,55.619L335.683,56.746C325.299,58.824 314.769,58.823 304.384,56.746L298.748,55.619C286.316,53.133 273.709,53.133 261.277,55.619L255.641,56.746C245.257,58.824 234.727,58.823 224.342,56.746L207.84,53.446L207.84,27.746L368.85,27.746ZM207.841,69.497L221.256,72.18C233.689,74.666 246.296,74.666 258.727,72.18L264.363,71.053C274.747,68.976 285.277,68.976 295.662,71.053L301.298,72.18C307.514,73.423 313.775,74.045 320.034,74.045C326.293,74.045 332.554,73.424 338.769,72.18L344.405,71.053C352.511,69.432 360.704,69.094 368.849,70.004L368.849,92.048L207.841,92.048L207.841,69.497ZM464.34,92.048L464.34,70.213C468.907,71.099 474.624,71.838 481.001,71.838C485.786,71.838 490.945,71.409 496.259,70.327L496.259,92.047L464.34,92.047L464.34,92.048Z" style="fill-rule:nonzero;"/>
                <path d="M151.636,19.66L135.896,19.66L135.896,52.19L76.697,52.19L58.044,70.443L69.054,81.693L83.117,67.93L135.896,67.93L135.896,100.459L151.636,100.459L151.636,92.065L183.116,92.065L183.116,76.324L151.636,76.324L151.636,43.795L183.116,43.795L183.116,28.055L151.636,28.055L151.636,19.66Z" style="fill-rule:nonzero;"/>
            </g>
            <g id="salad1" serif:id="salad" transform="matrix(1,0,0,1,-256,-256)">
                <rect x="143.938" y="35.887" width="56.035" height="48.025" style="fill:rgb(140,198,63);"/>
                <rect x="143.938" y="59.896" width="56.035" height="24.012" style="fill:rgb(217,224,33);"/>
                <rect x="199.973" y="19.876" width="304.162" height="80.044" style="fill:rgb(140,198,63);"/>
                <path d="M377.247,63.336C365.897,61.066 354.212,61.066 342.862,63.336L337.226,64.463C325.876,66.733 314.191,66.733 302.841,64.463L297.205,63.336C285.855,61.066 274.17,61.066 262.82,63.336L257.184,64.463C245.834,66.733 234.149,66.733 222.799,64.463L199.971,59.897L199.971,99.918L504.131,99.918L504.131,59.897C488.544,65.092 471.693,65.092 456.106,59.897" style="fill:rgb(217,224,33);fill-rule:nonzero;"/>
                <rect x="376.063" y="19.876" width="80.044" height="80.044" style="fill:white;"/>
                <g>
                    <path d="M207.975,324.035L207.975,215.979C207.975,209.348 213.351,203.972 219.982,203.972L227.986,203.972C234.617,203.972 239.993,198.596 239.993,191.965C239.993,185.334 245.369,179.958 252,179.958L276.013,179.958C282.644,179.958 288.02,185.334 288.02,191.965C288.02,198.596 293.396,203.972 300.027,203.972C311.079,203.972 320.038,212.931 320.038,223.983L320.038,324.036" style="fill:rgb(57,181,74);fill-rule:nonzero;"/>
                    <path d="M39.889,322.429L17.164,299.704C12.476,295.016 12.476,287.413 17.164,282.725L22.824,277.065C27.512,272.377 27.512,264.774 22.824,260.086C18.136,255.398 18.136,247.795 22.824,243.107L39.803,226.128C44.491,221.44 52.094,221.44 56.782,226.128C61.47,230.816 69.073,230.816 73.761,226.128C81.575,218.314 94.245,218.314 102.06,226.128L115.925,239.993C115.925,239.993 80.609,297.644 135.936,324.037L39.889,322.429Z" style="fill:rgb(57,181,74);fill-rule:nonzero;"/>
                    <path d="M480.116,322.429L502.841,299.704C507.529,295.016 507.529,287.413 502.841,282.725L497.181,277.065C492.493,272.377 492.493,264.774 497.181,260.086C501.869,255.398 501.869,247.795 497.181,243.107L480.202,226.128C475.514,221.44 467.911,221.44 463.223,226.128C458.535,230.816 450.932,230.816 446.244,226.128C438.43,218.314 425.76,218.314 417.945,226.128L404.08,239.993C404.08,239.993 439.396,297.644 384.069,324.037L480.116,322.429Z" style="fill:rgb(57,181,74);fill-rule:nonzero;"/>
                </g>
                <g>
                    <g transform="matrix(-0.7071,-0.7071,0.7071,-0.7071,-82.3546,552.671)">
                        <rect x="57.277" y="277.384" width="32.016" height="32.016" style="fill:rgb(241,90,36);"/>
                    </g>
                    <g transform="matrix(-0.7071,-0.7071,0.7071,-0.7071,254.539,692.197)">
                        <rect x="254.62" y="277.374" width="32.016" height="32.016" style="fill:rgb(241,90,36);"/>
                    </g>
                    <g transform="matrix(-0.7071,-0.7071,0.7071,-0.7071,555.168,816.733)">
                        <rect x="430.727" y="277.379" width="32.016" height="32.016" style="fill:rgb(241,90,36);"/>
                    </g>
                </g>
                <path d="M339.186,324.037C322.913,314.233 312.029,296.392 312.029,276.01C312.029,245.066 337.115,219.98 368.059,219.98C399.003,219.98 424.089,245.066 424.089,276.01C424.089,296.392 413.205,314.233 396.932,324.037" style="fill:rgb(255,29,37);fill-rule:nonzero;"/>
                <circle cx="368.057" cy="276.008" r="32.016" style="fill:rgb(255,74,81);"/>
                <circle cx="368.057" cy="276.008" r="16.009" style="fill:rgb(255,119,124);"/>
                <path id="SVGCleanerId_01" serif:id="SVGCleanerId_0" d="M131.077,324.037C114.804,314.233 103.92,296.392 103.92,276.01C103.92,245.066 129.006,219.98 159.95,219.98C190.894,219.98 215.98,245.066 215.98,276.01C215.98,296.392 205.096,314.233 188.823,324.037" style="fill:rgb(255,29,37);fill-rule:nonzero;"/>
                <path id="SVGCleanerId_0_1_1" serif:id="SVGCleanerId_0_1_" d="M131.077,324.037C114.804,314.233 103.92,296.392 103.92,276.01C103.92,245.066 129.006,219.98 159.95,219.98C190.894,219.98 215.98,245.066 215.98,276.01C215.98,296.392 205.096,314.233 188.823,324.037" style="fill:rgb(255,29,37);fill-rule:nonzero;"/>
                <circle cx="159.951" cy="276.008" r="32.016" style="fill:rgb(255,74,81);"/>
                <path d="M336.042,492.124L175.958,492.124C83.126,492.124 7.87,416.868 7.87,324.035L504.13,324.035C504.13,416.868 428.874,492.124 336.042,492.124Z" style="fill:rgb(212,20,90);fill-rule:nonzero;"/>
                <path d="M456.105,325.018C456.105,417.36 380.849,491.863 288.017,491.863L336.042,491.863C428.874,491.863 504.13,417.36 504.13,325.018L456.105,325.018Z" style="fill:rgb(221,67,123);fill-rule:nonzero;"/>
                <path d="M55.895,325.018C55.895,420.508 131.151,491.863 223.983,491.863L175.958,491.863C83.126,491.863 7.87,420.508 7.87,325.018L55.895,325.018Z" style="fill:rgb(159,15,68);fill-rule:nonzero;"/>
                <rect x="15.877" y="356.052" width="480.252" height="24.012" style="fill:white;"/>
                <rect x="152.69" y="235.829" width="15.74" height="16.789"/>
                <g transform="matrix(-0.6428,-0.766,0.766,-0.6428,36.3314,519.914)">
                    <rect x="131.376" y="243.617" width="16.008" height="15.74"/>
                </g>
                <g transform="matrix(-0.9848,-0.1737,0.1737,-0.9848,207.887,559.091)">
                    <rect x="120.404" y="262.579" width="16.009" height="15.74"/>
                </g>
                <g transform="matrix(-0.5,-0.866,0.866,-0.5,-54.5387,552.533)">
                    <rect x="124.361" y="284.006" width="15.74" height="16.007"/>
                </g>
                <g transform="matrix(-0.9397,-0.342,0.342,-0.9397,184.351,644.698)">
                    <rect x="141.141" y="298.093" width="15.74" height="16.008"/>
                </g>
                <g transform="matrix(-0.342,-0.9397,0.9397,-0.342,-58.2927,571.367)">
                    <rect x="162.892" y="298.222" width="16.008" height="15.74"/>
                </g>
                <g transform="matrix(-0.866,-0.5,0.5,-0.866,204.189,638.74)">
                    <rect x="179.668" y="284.143" width="16.007" height="15.74"/>
                </g>
                <g transform="matrix(-0.1737,-0.9848,0.9848,-0.1737,-41.6109,506.011)">
                    <rect x="183.61" y="262.458" width="15.74" height="16.009"/>
                </g>
                <g transform="matrix(-0.766,-0.6428,0.6428,-0.766,157.151,560.14)">
                    <rect x="172.649" y="243.465" width="15.74" height="16.008"/>
                </g>
                <rect x="359.41" y="235.829" width="15.74" height="16.789"/>
                <g transform="matrix(-0.6428,-0.766,0.766,-0.6428,378.241,679.306)">
                    <rect x="339.492" y="243.599" width="16.008" height="15.74"/>
                </g>
                <g transform="matrix(-0.9848,-0.1737,0.1737,-0.9848,620.951,595.257)">
                    <rect x="328.518" y="262.587" width="16.009" height="15.74"/>
                </g>
                <g transform="matrix(-0.5,-0.866,0.866,-0.5,257.625,732.766)">
                    <rect x="332.471" y="284.01" width="15.74" height="16.008"/>
                </g>
                <g transform="matrix(-0.9397,-0.342,0.342,-0.9397,588.038,715.859)">
                    <rect x="349.257" y="298.085" width="15.74" height="16.008"/>
                </g>
                <g transform="matrix(-0.342,-0.9397,0.9397,-0.342,220.979,766.918)">
                    <rect x="370.993" y="298.222" width="16.008" height="15.74"/>
                </g>
                <g transform="matrix(-0.866,-0.5,0.5,-0.866,592.523,742.808)">
                    <rect x="387.777" y="284.149" width="16.008" height="15.74"/>
                </g>
                <g transform="matrix(-0.1737,-0.9848,0.9848,-0.1737,202.645,710.946)">
                    <rect x="391.714" y="262.453" width="15.74" height="16.009"/>
                </g>
                <g transform="matrix(-0.766,-0.6428,0.6428,-0.766,524.666,693.927)">
                    <rect x="380.755" y="243.472" width="15.74" height="16.008"/>
                </g>
                <rect x="47.751" y="244.223" width="15.74" height="15.74"/>
                <rect x="455.949" y="244.223" width="15.74" height="15.74"/>
                <rect x="255.525" y="220.088" width="16.789" height="15.74"/>
                <rect x="232.44" y="252.618" width="15.74" height="15.74"/>
                <g>
                    <rect x="47.751" y="100.463" width="15.74" height="15.74" style="fill:rgb(217,224,33);"/>
                    <rect x="63.496" y="123.549" width="15.74" height="32.53" style="fill:rgb(217,224,33);"/>
                    <rect x="23.616" y="163.424" width="15.74" height="24.135" style="fill:rgb(217,224,33);"/>
                    <rect x="87.631" y="180.213" width="15.74" height="15.74" style="fill:rgb(217,224,33);"/>
                </g>
                <path d="M493.506,316.166L504.403,305.27C512.152,297.521 512.152,284.911 504.403,277.16L498.743,271.501C497.961,270.719 497.532,269.681 497.532,268.577C497.532,267.473 497.962,266.433 498.743,265.651C506.493,257.902 506.493,245.292 498.743,237.541L481.764,220.562C478.009,216.807 473.019,214.74 467.709,214.74C462.399,214.74 457.409,216.807 453.654,220.562C452.041,222.175 449.417,222.175 447.804,220.562C436.934,209.692 419.246,209.692 408.375,220.562L405.009,223.928C394.568,216.499 381.82,212.111 368.059,212.111C352.857,212.111 338.885,217.455 327.904,226.354L327.904,223.984C327.904,208.611 315.397,196.104 300.023,196.104C297.743,196.104 295.888,194.248 295.888,191.967C295.888,181.007 286.972,172.09 276.011,172.09L251.999,172.09C241.039,172.09 232.122,181.006 232.122,191.967C232.122,194.247 230.266,196.104 227.985,196.104L219.981,196.104C209.022,196.104 200.105,205.02 200.105,215.98L200.105,226.355C189.124,217.458 175.152,212.112 159.95,212.112C143.126,212.112 127.811,218.658 116.388,229.323L107.628,220.562C102.361,215.295 95.361,212.396 87.913,212.396C80.465,212.396 73.465,215.296 68.198,220.562C66.586,222.176 63.962,222.176 62.348,220.562C54.599,212.814 41.989,212.813 34.238,220.562L17.259,237.541C9.509,245.29 9.509,257.9 17.259,265.651C18.041,266.433 18.47,267.471 18.47,268.577C18.47,269.682 18.04,270.72 17.259,271.501L11.599,277.161C3.85,284.91 3.85,297.52 11.599,305.271L22.496,316.166L0,316.166L0,324.036C0,421.059 78.935,499.994 175.958,499.994L336.042,499.994C433.065,499.994 512,421.059 512,324.036L512,316.166L493.506,316.166ZM436.675,231.691C440.43,235.446 445.42,237.513 450.73,237.513C456.04,237.513 461.03,235.446 464.785,231.691C466.398,230.078 469.021,230.078 470.634,231.691L487.613,248.67C489.226,250.283 489.226,252.907 487.613,254.52C483.858,258.275 481.791,263.265 481.791,268.575C481.791,273.884 483.858,278.875 487.613,282.63L493.273,288.289C494.886,289.902 494.886,292.526 493.273,294.139L471.246,316.166L457.722,316.166L480.496,293.392L446.727,259.623L431.918,274.432C431.547,259.242 425.857,245.357 416.633,234.562L419.505,231.69C424.239,226.957 431.941,226.957 436.675,231.691ZM435.732,316.166L417.833,316.166C420.562,312.8 422.929,309.173 424.905,305.339L435.732,316.166ZM435.218,293.392L446.727,281.883L458.236,293.392L446.727,304.901L435.218,293.392ZM368.059,227.85C380.909,227.85 392.592,232.919 401.236,241.15L402.918,242.832C411.149,251.476 416.218,263.159 416.218,276.009C416.218,282.063 415.097,287.904 413.023,293.326L412.959,293.39L412.988,293.419C409.453,302.601 403.125,310.54 394.618,316.162L341.5,316.162C327.945,307.203 319.899,292.355 319.899,276.007C319.899,249.455 341.504,227.85 368.059,227.85ZM312.185,243.993L312.795,243.993C312.59,244.345 312.384,244.695 312.185,245.052L312.185,243.993ZM219.981,211.843L227.985,211.843C238.945,211.843 247.862,202.927 247.862,191.966C247.862,189.686 249.718,187.829 251.999,187.829L276.011,187.829C278.291,187.829 280.147,189.685 280.147,191.966C280.147,202.926 289.063,211.843 300.023,211.843C306.717,211.843 312.164,217.289 312.164,223.983L312.164,235.824L295.397,235.824L295.397,251.564L309.031,251.564C305.899,259.099 304.161,267.354 304.161,276.011C304.161,290.977 309.236,305.003 318.286,316.166L281.632,316.166L304.406,293.392L270.637,259.623L236.868,293.392L259.642,316.166L209.727,316.166C218.778,305.003 223.852,290.977 223.852,276.011C223.852,264.8 220.94,254.259 215.848,245.09L215.848,235.824L222.994,235.824L222.994,220.084L215.848,220.084L215.848,215.979C215.845,213.698 217.701,211.843 219.981,211.843ZM270.636,304.901L259.127,293.392L270.636,281.883L282.145,293.392L270.636,304.901ZM159.95,227.85C186.506,227.85 208.11,249.454 208.11,276.01C208.11,292.358 200.065,307.206 186.509,316.165L133.39,316.165C119.835,307.206 111.789,292.358 111.789,276.01C111.791,249.455 133.394,227.85 159.95,227.85ZM100.597,299.84C102.949,305.731 106.172,311.227 110.174,316.165L84.273,316.165L100.597,299.84ZM73.278,304.901L61.769,293.392L73.278,281.883L84.787,293.392L73.278,304.901ZM22.729,294.139C21.116,292.526 21.116,289.902 22.729,288.29L28.389,282.63C32.144,278.875 34.211,273.885 34.211,268.575C34.211,263.265 32.144,258.275 28.389,254.52C26.776,252.907 26.776,250.283 28.389,248.67L45.368,231.691C46.981,230.079 49.605,230.078 51.218,231.691C54.973,235.446 59.963,237.513 65.273,237.513C70.583,237.513 75.573,235.446 79.328,231.691C81.622,229.398 84.67,228.135 87.913,228.135C91.156,228.135 94.205,229.398 96.498,231.691L106.251,241.444C99.809,251.417 96.051,263.28 96.051,276.01C96.051,278.28 96.173,280.527 96.403,282.747L73.279,259.623L39.509,293.392L62.283,316.167L44.755,316.167L22.729,294.139ZM496.069,331.906C495.804,337.381 495.256,342.785 494.451,348.104L17.549,348.104C16.744,342.785 16.196,337.382 15.931,331.906L496.069,331.906ZM20.754,363.844L491.246,363.844C490.52,366.673 489.717,369.472 488.842,372.239L23.158,372.239C22.283,369.472 21.48,366.673 20.754,363.844ZM336.042,484.254L175.958,484.254C110.329,484.254 53.791,444.593 29.054,387.979L482.946,387.979C458.21,444.592 401.671,484.254 336.042,484.254Z" style="fill-rule:nonzero;"/>
                <circle cx="159.951" cy="276.008" r="16.009" style="fill:rgb(255,119,124);"/>
                <path d="M192.101,12.006L192.101,107.788L512,107.788L512,12.006L192.101,12.006ZM496.26,54.165C483.495,57.561 471.158,55.714 464.34,54.097L464.34,27.746L496.26,27.746L496.26,54.165ZM408.725,67.93L408.725,92.048L384.59,92.048L384.59,27.746L448.6,27.746L448.6,92.048L424.465,92.048L424.465,67.93L408.725,67.93ZM368.85,27.746L368.85,54.176C359.671,53.321 350.448,53.793 341.319,55.619L335.683,56.746C325.299,58.824 314.769,58.823 304.384,56.746L298.748,55.619C286.316,53.133 273.709,53.133 261.277,55.619L255.641,56.746C245.257,58.824 234.727,58.823 224.342,56.746L207.84,53.446L207.84,27.746L368.85,27.746ZM207.841,69.497L221.256,72.18C233.689,74.666 246.296,74.666 258.727,72.18L264.363,71.053C274.747,68.976 285.277,68.976 295.662,71.053L301.298,72.18C307.514,73.423 313.775,74.045 320.034,74.045C326.293,74.045 332.554,73.424 338.769,72.18L344.405,71.053C352.511,69.432 360.704,69.094 368.849,70.004L368.849,92.048L207.841,92.048L207.841,69.497ZM464.34,92.048L464.34,70.213C468.907,71.099 474.624,71.838 481.001,71.838C485.786,71.838 490.945,71.409 496.259,70.327L496.259,92.047L464.34,92.047L464.34,92.048Z" style="fill-rule:nonzero;"/>
                <path d="M151.636,19.66L135.896,19.66L135.896,52.19L76.697,52.19L58.044,70.443L69.054,81.693L83.117,67.93L135.896,67.93L135.896,100.459L151.636,100.459L151.636,92.065L183.116,92.065L183.116,76.324L151.636,76.324L151.636,43.795L183.116,43.795L183.116,28.055L151.636,28.055L151.636,19.66Z" style="fill-rule:nonzero;"/>
            </g>
            <g id="salad2" serif:id="salad">
            </g>
        </g>
    </g>
</svg>
