<?xml version="1.0" encoding="UTF-8" standalone="no"?>
<!DOCTYPE svg PUBLIC "-//W3C//DTD SVG 1.1//EN" "http://www.w3.org/Graphics/SVG/1.1/DTD/svg11.dtd">
<svg width="100%" height="100%" viewBox="0 0 88 88" version="1.1" xmlns="http://www.w3.org/2000/svg" xmlns:xlink="http://www.w3.org/1999/xlink" xml:space="preserve" xmlns:serif="http://www.serif.com/" style="fill-rule:evenodd;clip-rule:evenodd;stroke-linejoin:round;stroke-miterlimit:2;">
    <g transform="matrix(8.06204e-18,0.171412,-0.171412,8.06204e-18,43.8814,43.8814)">
        <g id="hot-dog" transform="matrix(1,0,0,1,-256,-256)">
            <clipPath id="_clip1">
                <rect x="0" y="0" width="512" height="512"/>
            </clipPath>
            <g clip-path="url(#_clip1)">
                <path d="M23.558,223.542L23.558,207.972C23.558,181.446 45.365,159.673 71.89,159.673L440.108,159.673C466.634,159.673 488.44,181.446 488.44,207.972L488.44,223.542" style="fill:rgb(252,192,98);fill-rule:nonzero;"/>
                <path d="M135.929,159.673L71.89,159.673C45.364,159.673 23.558,181.446 23.558,207.972L23.558,223.542L87.427,223.542L87.427,207.972C87.427,181.446 109.404,159.673 135.929,159.673Z" style="fill:rgb(189,144,74);fill-rule:nonzero;"/>
                <path d="M376.071,159.673L440.109,159.673C466.635,159.673 488.441,181.446 488.441,207.972L488.441,223.542L424.572,223.542L424.572,207.972C424.573,181.446 402.596,159.673 376.071,159.673Z" style="fill:rgb(253,217,161);fill-rule:nonzero;"/>
                <path d="M23.558,288.458L23.558,304.028C23.558,330.554 45.365,352.327 71.89,352.327L440.108,352.327C466.634,352.327 488.44,330.554 488.44,304.028L488.44,288.458" style="fill:rgb(252,192,98);fill-rule:nonzero;"/>
                <path d="M135.929,352.327L71.89,352.327C45.364,352.327 23.558,330.554 23.558,304.028L23.558,288.458L87.427,288.458L87.427,304.028C87.427,330.554 109.404,352.327 135.929,352.327Z" style="fill:rgb(189,144,74);fill-rule:nonzero;"/>
                <path d="M376.071,352.327L440.109,352.327C466.635,352.327 488.441,330.554 488.441,304.028L488.441,288.458L424.572,288.458L424.572,304.028C424.573,330.554 402.596,352.327 376.071,352.327Z" style="fill:rgb(253,217,161);fill-rule:nonzero;"/>
                <path d="M456.119,304.029L55.881,304.029C29.355,304.029 7.852,282.526 7.852,256C7.852,229.474 29.355,207.971 55.881,207.971L456.118,207.971C482.644,207.971 504.147,229.474 504.147,256C504.147,282.526 482.644,304.029 456.119,304.029Z" style="fill:rgb(241,73,80);fill-rule:nonzero;"/>
                <g>
                    <circle cx="256" cy="223.982" r="16.009" style="fill:rgb(140,198,63);"/>
                    <circle cx="95.908" cy="223.982" r="16.009" style="fill:rgb(140,198,63);"/>
                    <circle cx="215.972" cy="288.018" r="16.009" style="fill:rgb(140,198,63);"/>
                    <circle cx="416.092" cy="223.982" r="16.009" style="fill:rgb(140,198,63);"/>
                </g>
                <path d="M63.886,256C63.886,229.474 85.389,207.836 111.915,207.836L55.881,207.836C29.355,207.836 7.852,229.474 7.852,256C7.852,282.526 29.355,304.164 55.881,304.164L111.914,304.164C85.389,304.164 63.886,282.526 63.886,256Z" style="fill:rgb(237,28,36);fill-rule:nonzero;"/>
                <path d="M448.114,256C448.114,229.474 426.611,207.836 400.085,207.836L456.118,207.836C482.644,207.836 504.147,229.474 504.147,256C504.147,282.526 482.644,304.164 456.118,304.164L400.085,304.164C426.611,304.164 448.114,282.526 448.114,256Z" style="fill:rgb(244,119,124);fill-rule:nonzero;"/>
                <path d="M336.048,272.519C328.508,272.519 320.969,270.003 314.677,264.97L307.583,259.296C300.778,253.85 291.269,253.85 284.465,259.296L277.371,264.97C264.788,275.036 247.212,275.036 234.63,264.97L227.536,259.295C220.729,253.85 211.221,253.851 204.415,259.295L197.326,264.967C184.743,275.034 167.166,275.034 154.583,264.969L147.489,259.294C140.683,253.849 131.175,253.85 124.368,259.295L117.277,264.969C104.693,275.035 87.116,275.035 74.534,264.969L50.976,246.122L60.787,233.858L84.345,252.705C91.151,258.15 100.659,258.15 107.467,252.705L114.558,247.032C127.141,236.966 144.717,236.965 157.301,247.031L164.395,252.706C171.201,258.151 180.709,258.151 187.516,252.705L194.605,247.033C207.188,236.965 224.765,236.965 237.348,247.032L244.442,252.707C251.248,258.152 260.757,258.152 267.562,252.707L274.656,247.033C287.237,236.967 304.815,236.966 317.397,247.033L324.49,252.707C331.296,258.152 340.804,258.153 347.61,252.707L354.702,247.033C367.287,236.966 384.863,236.966 397.445,247.033L404.537,252.707C411.343,258.153 420.851,258.153 427.657,252.707L451.215,233.86L461.027,246.124L437.469,264.971C424.886,275.038 407.31,275.038 394.726,264.971L387.634,259.297C380.827,253.851 371.321,253.852 364.514,259.297L357.422,264.971C351.127,270.002 343.588,272.519 336.048,272.519Z" style="fill:rgb(251,176,59);fill-rule:nonzero;"/>
                <g>
                    <rect x="47.64" y="280.082" width="16.753" height="15.706" style="fill:rgb(174,116,24);"/>
                    <rect x="128.262" y="271.706" width="15.706" height="15.706" style="fill:rgb(174,116,24);"/>
                    <path d="M176.425,231.918L176.425,224.589L159.673,224.589L159.673,240.294L176.425,240.294L176.425,247.624L192.131,247.624L192.131,231.918L176.425,231.918Z" style="fill:rgb(174,116,24);fill-rule:nonzero;"/>
                    <rect x="328.245" y="224.589" width="15.706" height="15.706" style="fill:rgb(174,116,24);"/>
                    <rect x="383.738" y="271.706" width="16.753" height="15.706" style="fill:rgb(174,116,24);"/>
                    <rect x="455.984" y="271.706" width="15.706" height="15.706" style="fill:rgb(174,116,24);"/>
                    <rect x="280.082" y="280.082" width="15.706" height="15.706" style="fill:rgb(174,116,24);"/>
                    <rect x="295.787" y="264.376" width="16.753" height="15.706" style="fill:rgb(174,116,24);"/>
                </g>
                <rect x="119.885" y="176.425" width="32.458" height="15.706"/>
                <rect x="343.951" y="319.869" width="39.787" height="15.706"/>
                <path d="M495.771,216.669L495.771,207.971C495.771,177.297 470.801,152.343 440.11,152.343L71.89,152.343C41.198,152.343 16.229,177.297 16.229,207.971L16.229,216.669C6.205,226.775 0,240.676 0,256C0,271.324 6.205,285.225 16.229,295.331L16.229,304.029C16.229,334.703 41.199,359.657 71.89,359.657L440.11,359.657C470.802,359.657 495.771,334.703 495.771,304.029L495.771,295.331C505.795,285.225 512,271.324 512,256C512,240.676 505.795,226.775 495.771,216.669ZM71.89,168.049L104.179,168.049L104.179,176.425L119.885,176.425L119.885,168.049L376.409,168.049L376.409,176.425L392.115,176.425L392.115,168.049L440.11,168.049C461.304,168.049 478.689,184.625 479.98,205.482C472.739,202.048 464.651,200.119 456.119,200.119L55.881,200.119C47.349,200.119 39.26,202.048 32.02,205.482C33.311,184.625 50.696,168.049 71.89,168.049ZM424.251,223.981C424.251,228.479 420.593,232.137 416.095,232.137C411.597,232.137 407.939,228.478 407.939,223.981C407.939,219.484 411.597,215.825 416.095,215.825C420.593,215.825 424.251,219.484 424.251,223.981ZM264.156,223.981C264.156,228.479 260.498,232.137 256,232.137C251.502,232.137 247.843,228.478 247.843,223.981C247.843,219.484 251.502,215.825 256,215.825C260.498,215.824 264.156,219.484 264.156,223.981ZM104.062,223.981C104.062,228.479 100.403,232.137 95.905,232.137C91.408,232.137 87.749,228.478 87.749,223.981C87.749,219.484 91.408,215.825 95.905,215.825C100.403,215.824 104.062,219.484 104.062,223.981ZM440.11,343.951L192.131,343.951L192.131,328.245L176.425,328.245L176.425,319.869L159.672,319.869L159.672,335.575L176.425,335.575L176.425,343.951L71.89,343.951C50.696,343.951 33.311,327.375 32.02,306.518C39.261,309.952 47.349,311.881 55.881,311.881L456.118,311.881C464.65,311.881 472.739,309.952 479.979,306.518C478.689,327.375 461.304,343.951 440.11,343.951ZM207.82,288.019C207.82,283.521 211.479,279.863 215.977,279.863C220.474,279.863 224.133,283.522 224.133,288.019C224.133,292.516 220.474,296.175 215.977,296.175C211.479,296.176 207.82,292.516 207.82,288.019ZM495.41,264.376C491.545,282.521 475.4,296.175 456.119,296.175L238.401,296.175C239.33,293.629 239.838,290.882 239.838,288.019C239.838,274.861 229.133,264.157 215.976,264.157C202.818,264.157 192.113,274.862 192.113,288.019C192.113,290.883 192.621,293.63 193.55,296.175L55.881,296.175C36.601,296.175 20.455,282.521 16.59,264.376L31.934,264.376L31.934,248.67L16.387,248.67C19.843,230.007 36.231,215.823 55.881,215.823L73.48,215.823C72.551,218.369 72.043,221.116 72.043,223.979C72.043,237.137 82.748,247.841 95.905,247.841C109.063,247.841 119.768,237.136 119.768,223.979C119.768,221.115 119.26,218.368 118.331,215.823L233.575,215.823C232.646,218.369 232.138,221.116 232.138,223.979C232.138,237.137 242.843,247.841 256.001,247.841C269.158,247.841 279.863,237.136 279.863,223.979C279.863,221.115 279.355,218.368 278.426,215.823L393.671,215.823C392.742,218.369 392.234,221.116 392.234,223.979C392.234,237.137 402.939,247.841 416.096,247.841C429.253,247.841 439.958,237.136 439.958,223.979C439.958,221.115 439.45,218.368 438.521,215.823L456.12,215.823C475.77,215.823 492.158,230.006 495.614,248.67L480.063,248.67L480.063,264.376L495.41,264.376Z" style="fill-rule:nonzero;"/>
                <rect x="392.115" y="176.425" width="15.706" height="15.706"/>
                <g>
                    <rect x="368.033" y="288.458" width="15.706" height="15.706" style="fill:rgb(174,116,24);"/>
                    <rect x="40.311" y="207.836" width="15.706" height="24.082" style="fill:rgb(174,116,24);"/>
                </g>
            </g>
        </g>
        <g id="hot-dog1" serif:id="hot-dog">
        </g>
    </g>
</svg>
