<?xml version="1.0" encoding="UTF-8" standalone="no"?>
<!DOCTYPE svg PUBLIC "-//W3C//DTD SVG 1.1//EN" "http://www.w3.org/Graphics/SVG/1.1/DTD/svg11.dtd">
<svg width="100%" height="100%" viewBox="0 0 88 88" version="1.1" xmlns="http://www.w3.org/2000/svg" xmlns:xlink="http://www.w3.org/1999/xlink" xml:space="preserve" xmlns:serif="http://www.serif.com/" style="fill-rule:evenodd;clip-rule:evenodd;stroke-linejoin:round;stroke-miterlimit:2;">
    <g transform="matrix(0.171412,0,0,0.171412,43.8814,43.8814)">
        <g id="sandwich" transform="matrix(1,0,0,1,-256,-256)">
            <rect x="81.618" y="233.227" width="349.841" height="217.707" style="fill:rgb(140,198,63);"/>
            <path d="M391.443,448.334L438.41,448.334L438.41,502.607L74.156,502.607L74.156,448.334L303.772,448.334" style="fill:rgb(251,176,59);fill-rule:nonzero;"/>
            <rect x="335.98" y="447.897" width="103.432" height="55.661" style="fill:rgb(252,192,98);"/>
            <g>
                <path d="M438.41,424.328L391.704,424.328L351.95,464.082L312.195,424.328L74.156,424.328L74.156,400.323L438.41,400.323L438.41,424.328Z" style="fill:rgb(241,90,36);fill-rule:nonzero;"/>
                <path d="M439.41,304.783L280.393,304.783L240.638,344.538L200.883,304.783L73.669,304.783L73.669,269.004L439.41,269.004L439.41,304.783Z" style="fill:rgb(241,90,36);fill-rule:nonzero;"/>
            </g>
            <rect x="73.665" y="447.897" width="103.432" height="55.661" style="fill:rgb(247,147,30);"/>
            <g>
                <path d="M439.41,233.225L73.669,233.225L73.669,177.568L256.54,10.6L439.41,177.568L439.41,233.225Z" style="fill:rgb(251,176,59);fill-rule:nonzero;"/>
                <path d="M73.669,176.969L256.54,10L439.41,176.969L73.669,176.969Z" style="fill:rgb(251,176,59);fill-rule:nonzero;"/>
            </g>
            <path d="M177.031,233.225L73.669,233.225L73.669,177.568L256.54,10.6L177.031,177.568L177.031,233.225Z" style="fill:rgb(247,147,30);fill-rule:nonzero;"/>
            <path d="M439.41,233.225L336.048,233.225L336.048,177.568L256.54,10.6L439.41,177.568L439.41,233.225Z" style="fill:rgb(252,192,98);fill-rule:nonzero;"/>
            <rect x="136.778" y="170.709" width="240.053" height="15.656"/>
            <rect x="161.827" y="138.354" width="14.612" height="15.656"/>
            <rect x="208.794" y="122.698" width="48.011" height="15.656"/>
            <rect x="256.805" y="107.043" width="15.656" height="15.656"/>
            <rect x="303.772" y="138.354" width="24.005" height="15.656"/>
            <rect x="200.444" y="90.343" width="15.656" height="15.656"/>
            <path d="M256.54,0L65.84,174.116L65.84,241.053L447.236,241.053L447.236,174.116L256.54,0ZM431.582,225.397L81.496,225.397L81.496,186.362L122.165,186.362L122.165,170.706L92.793,170.706L207.104,66.336L256.803,66.336L256.803,50.68L224.25,50.68L256.539,21.2L324.263,83.036L303.772,83.036L303.772,98.692L341.411,98.692L358.558,114.348L351.783,114.348L351.783,130.004L375.705,130.004L420.286,170.709L391.443,170.709L391.443,186.365L431.582,186.365L431.582,225.397Z" style="fill-rule:nonzero;"/>
            <g>
                <path d="M427.484,257.078C434.071,257.078 439.41,262.418 439.41,269.004C439.41,275.591 434.07,280.93 427.484,280.93L85.596,280.93C79.009,280.93 73.67,275.59 73.67,269.004C73.67,262.417 79.01,257.078 85.596,257.078L427.484,257.078Z" style="fill:rgb(255,123,172);fill-rule:nonzero;"/>
                <path d="M427.484,352.489C434.071,352.489 439.41,357.829 439.41,364.415C439.41,371.002 434.07,376.341 427.484,376.341L85.596,376.341C79.009,376.341 73.67,371.001 73.67,364.415C73.67,357.828 79.01,352.489 85.596,352.489L427.484,352.489Z" style="fill:rgb(255,123,172);fill-rule:nonzero;"/>
            </g>
            <path d="M427.484,288.758L85.596,288.758C74.703,288.758 65.842,279.897 65.842,269.004C65.842,258.111 74.704,249.25 85.596,249.25L427.484,249.25C438.377,249.25 447.238,258.111 447.238,269.004C447.238,279.897 438.377,288.758 427.484,288.758ZM85.596,264.906C83.335,264.906 81.497,266.744 81.497,269.005C81.497,271.266 83.336,273.104 85.596,273.104L427.484,273.104C429.744,273.104 431.583,271.266 431.583,269.005C431.583,266.744 429.744,264.906 427.484,264.906L85.596,264.906Z" style="fill-rule:nonzero;"/>
            <path d="M240.638,355.607L197.641,312.611L73.668,312.611L73.668,296.955L204.126,296.955L240.638,333.467L277.15,296.955L439.41,296.955L439.41,312.611L283.634,312.611L240.638,355.607Z" style="fill-rule:nonzero;"/>
            <g>
                <rect x="74.156" y="322.047" width="126.289" height="15.656" style="fill:rgb(237,28,36);"/>
                <rect x="279.766" y="322.047" width="158.644" height="15.656" style="fill:rgb(237,28,36);"/>
            </g>
            <g>
                <rect x="74.156" y="393.019" width="70.972" height="15.656" style="fill:rgb(0,146,69);"/>
                <rect x="152.434" y="393.019" width="104.371" height="15.656" style="fill:rgb(0,146,69);"/>
                <rect x="264.111" y="393.019" width="103.327" height="15.656" style="fill:rgb(0,146,69);"/>
                <rect x="376.831" y="393.019" width="61.579" height="15.656" style="fill:rgb(0,146,69);"/>
            </g>
            <path d="M427.484,384.667L85.596,384.667C74.515,384.667 64.792,375.228 64.763,364.453L64.763,364.403C64.793,353.883 74.321,345.007 85.596,345.007L216.1,345.007L216.1,360.663L85.596,360.663C83.042,360.663 80.441,362.56 80.418,364.431C80.441,366.536 83.235,369.013 85.596,369.013L427.484,369.013C429.643,369.013 431.097,366.653 431.105,364.444C431.098,362.147 429.678,360.664 427.484,360.664L264.111,360.664L264.111,345.008L427.484,345.008C438.282,345.008 446.743,353.535 446.76,364.427L446.76,364.461C446.741,375.605 438.101,384.667 427.484,384.667Z" style="fill-rule:nonzero;"/>
            <path d="M351.95,474.631L308.954,431.634L74.156,431.634L74.156,415.979L315.438,415.979L351.95,452.491L388.462,415.979L438.41,415.979L438.41,431.634L394.947,431.634L351.95,474.631Z" style="fill-rule:nonzero;"/>
            <path d="M446.76,512L64.762,512L64.762,439.984L303.772,439.984L303.772,455.64L80.418,455.64L80.418,496.344L431.104,496.344L431.104,455.64L391.443,455.64L391.443,439.984L446.76,439.984L446.76,512Z" style="fill-rule:nonzero;"/>
        </g>
        <g id="sandwich1" serif:id="sandwich">
        </g>
    </g>
</svg>
