<?xml version="1.0" encoding="UTF-8" standalone="no"?>
<!DOCTYPE svg PUBLIC "-//W3C//DTD SVG 1.1//EN" "http://www.w3.org/Graphics/SVG/1.1/DTD/svg11.dtd">
<svg width="100%" height="100%" viewBox="0 0 76 76" version="1.1" xmlns="http://www.w3.org/2000/svg" xmlns:xlink="http://www.w3.org/1999/xlink" xml:space="preserve" xmlns:serif="http://www.serif.com/" style="fill-rule:evenodd;clip-rule:evenodd;stroke-linejoin:round;stroke-miterlimit:2;">
    <g transform="matrix(0.147532,0,0,0.147532,37.768,37.768)">
        <g id="water" transform="matrix(1,0,0,1,-255.999,-255.999)">
            <rect x="215.969" y="7.837" width="80.05" height="40.03" style="fill:rgb(0,169,157);"/>
            <path d="M303.862,55.7L208.136,55.7L208.136,0L303.862,0L303.862,55.7ZM223.809,40.027L288.188,40.027L288.188,15.673L223.809,15.673L223.809,40.027Z" style="fill-rule:nonzero;"/>
            <path d="M288.02,71.879L288.02,79.884C288.02,93.148 298.772,103.9 312.036,103.9C325.3,103.9 336.052,114.652 336.052,127.916L336.052,143.927L175.946,143.927L175.946,127.916C175.946,114.652 186.698,103.9 199.962,103.9C213.226,103.9 223.978,93.148 223.978,79.884L223.978,71.879L288.02,71.879Z" style="fill:rgb(140,203,249);fill-rule:nonzero;"/>
            <path d="M312.423,103.899C299.159,103.899 288.39,93.147 288.39,79.883L288.39,72.097L255.998,72.097L255.998,79.884C255.998,93.148 266.767,103.9 280.031,103.9C293.295,103.9 304.064,114.652 304.064,127.916L304.064,144.195L336.456,144.195L336.456,127.914C336.456,114.652 325.686,103.899 312.423,103.899Z" style="fill:rgb(178,221,251);fill-rule:nonzero;"/>
            <path d="M199.574,103.899C212.838,103.899 223.607,93.147 223.607,79.883L223.607,72.097L255.999,72.097L255.999,79.884C255.999,93.148 245.23,103.9 231.966,103.9C218.702,103.9 207.933,114.652 207.933,127.916L207.933,144.195L175.541,144.195L175.541,127.914C175.542,114.652 186.311,103.899 199.574,103.899Z" style="fill:rgb(101,186,247);fill-rule:nonzero;"/>
            <path d="M175.946,239.989L175.946,268.694C175.946,275.942 178.826,282.895 183.951,288.02C189.076,293.145 191.956,300.098 191.956,307.346L191.956,316.725C191.956,323.973 189.076,330.926 183.951,336.051C178.826,341.176 175.946,348.129 175.946,355.377L175.946,490.457C175.946,498.026 182.082,504.162 189.651,504.162L322.348,504.162C329.916,504.162 336.053,498.026 336.053,490.457L336.053,355.377C336.053,348.129 333.173,341.176 328.048,336.051C322.923,330.926 320.043,323.973 320.043,316.725L320.043,307.346C320.043,300.098 322.923,293.145 328.048,288.02C333.173,282.895 336.053,275.942 336.053,268.694L336.053,239.989" style="fill:rgb(140,203,249);fill-rule:nonzero;"/>
            <path d="M328.097,288.021C333.223,282.895 336.456,275.943 336.456,268.694L336.456,240.327L304.064,240.327L304.064,268.694C304.064,275.942 301.352,282.895 296.227,288.021C291.101,293.146 288.39,300.098 288.39,307.347L288.39,316.725C288.39,323.973 291.1,330.926 296.227,336.052C301.352,341.177 304.064,348.129 304.064,355.378L304.064,490.458C304.064,498.026 298.148,504.684 290.58,504.684L322.347,504.684C329.915,504.684 336.456,498.026 336.456,490.458L336.456,355.378C336.456,348.13 333.223,341.177 328.097,336.052C322.971,330.926 319.738,323.974 319.738,316.725L319.738,307.347C319.738,300.098 322.971,293.146 328.097,288.021Z" style="fill:rgb(178,221,251);fill-rule:nonzero;"/>
            <path d="M183.901,288.021C178.775,282.895 175.542,275.943 175.542,268.694L175.542,240.327L207.934,240.327L207.934,268.694C207.934,275.942 210.646,282.895 215.771,288.021C220.897,293.146 223.608,300.098 223.608,307.347L223.608,316.725C223.608,323.973 220.898,330.926 215.771,336.052C210.646,341.177 207.934,348.129 207.934,355.378L207.934,490.458C207.934,498.026 213.85,504.684 221.418,504.684L189.651,504.684C182.083,504.684 175.542,498.026 175.542,490.458L175.542,355.378C175.542,348.13 178.775,341.177 183.901,336.052C189.027,330.926 192.26,323.974 192.26,316.725L192.26,307.347C192.26,300.098 189.026,293.146 183.901,288.021Z" style="fill:rgb(101,186,247);fill-rule:nonzero;"/>
            <rect x="183.783" y="151.763" width="144.432" height="80.39" style="fill-rule:nonzero;"/>
            <rect x="175.949" y="143.924" width="160.11" height="96.068" style="fill:rgb(0,169,157);"/>
            <circle cx="255.999" cy="191.958" r="48.032" style="fill:white;"/>
            <path d="M333.588,293.563C340.23,286.92 343.889,278.087 343.889,268.694L343.889,127.915C343.889,110.351 329.6,96.063 312.036,96.063C303.116,96.063 295.858,88.805 295.858,79.884L295.858,79.412L304.065,79.412L304.065,63.739L207.934,63.739L207.934,79.412L216.142,79.412L216.142,79.883C216.142,88.804 208.884,96.062 199.963,96.062C182.399,96.062 168.11,110.351 168.11,127.914L168.11,268.693C168.11,278.086 171.768,286.917 178.411,293.562C182.093,297.243 184.12,302.14 184.12,307.346L184.12,316.725C184.12,321.932 182.092,326.828 178.411,330.509C171.769,337.151 168.11,345.984 168.11,355.377L168.11,490.457C168.11,502.334 177.773,511.998 189.651,511.998L322.348,511.998C334.226,511.998 343.89,502.335 343.89,490.457L343.89,355.378C343.89,345.984 340.232,337.153 333.589,330.512C329.907,326.83 327.879,321.933 327.879,316.727L327.879,307.348C327.877,302.141 329.905,297.245 333.588,293.563ZM328.215,232.153L294.742,232.153C305.287,221.985 311.867,207.73 311.867,191.958C311.867,176.186 305.287,161.932 294.742,151.763L328.215,151.763L328.215,232.153ZM255.999,232.153C233.836,232.153 215.804,214.121 215.804,191.958C215.804,169.795 233.835,151.763 255.999,151.763C278.162,151.763 296.194,169.795 296.194,191.958C296.194,214.121 278.162,232.153 255.999,232.153ZM183.783,127.915C183.783,118.995 191.041,111.737 199.962,111.737C217.526,111.737 231.815,97.448 231.815,79.884L231.815,79.412L280.184,79.412L280.184,79.883C280.184,97.448 294.473,111.736 312.036,111.736C320.957,111.736 328.215,118.994 328.215,127.914L328.215,136.088L183.783,136.088L183.783,127.915ZM183.783,151.763L217.255,151.763C206.71,161.931 200.13,176.186 200.13,191.958C200.13,207.73 206.71,221.984 217.255,232.153L183.783,232.153L183.783,151.763ZM318.445,287.347C315.01,292.292 312.931,298.019 312.372,304.065L271.672,304.065L271.672,319.738L312.338,319.738C313.034,327.994 316.577,335.666 322.504,341.594C326.186,345.275 328.214,350.171 328.214,355.377L328.214,384.521L240.324,384.521L240.324,400.194L328.214,400.194L328.214,463.933L240.324,463.933L240.324,479.606L328.214,479.606L328.214,490.457C328.214,493.693 325.581,496.324 322.346,496.324L189.65,496.324C186.415,496.324 183.783,493.692 183.783,490.457L183.783,479.606L216.293,479.606L216.293,463.933L183.783,463.933L183.783,439.9L295.705,439.9L295.705,424.227L183.783,424.227L183.783,359.443L295.705,359.443L295.705,343.77L187.64,343.77C188.206,343.01 188.811,342.275 189.494,341.592C195.421,335.664 198.963,327.993 199.659,319.737L240.326,319.737L240.326,304.064L199.626,304.064C199.067,298.017 196.988,292.291 193.553,287.346L295.705,287.346L295.705,271.673L184.032,271.673C183.883,270.694 183.783,269.703 183.783,268.694L183.783,247.825L328.215,247.825L328.215,268.694C328.215,269.702 328.116,270.694 327.966,271.673L312.423,271.673L312.423,287.346L318.445,287.346L318.445,287.347Z" style="fill-rule:nonzero;"/>
            <rect x="240.325" y="104.49" width="31.347" height="15.673"/>
            <path d="M208.135,0L208.135,55.7L303.861,55.7L303.861,0L208.135,0ZM264.358,15.673L264.358,40.026L247.64,40.026L247.64,15.673L264.358,15.673ZM223.809,15.673L231.967,15.673L231.967,40.026L223.809,40.026L223.809,15.673ZM288.188,40.027L280.032,40.027L280.032,15.673L288.19,15.673L288.19,40.026L288.188,40.026L288.188,40.027Z" style="fill-rule:nonzero;"/>
            <rect x="231.966" y="176.588" width="48.065" height="15.673"/>
            <rect x="247.64" y="200.62" width="16.718" height="15.673"/>
        </g>
        <g id="water1" serif:id="water">
        </g>
    </g>
</svg>
