<?xml version="1.0" encoding="UTF-8" standalone="no"?>
<!DOCTYPE svg PUBLIC "-//W3C//DTD SVG 1.1//EN" "http://www.w3.org/Graphics/SVG/1.1/DTD/svg11.dtd">
<svg width="100%" height="100%" viewBox="0 0 235 84" version="1.1" xmlns="http://www.w3.org/2000/svg" xmlns:xlink="http://www.w3.org/1999/xlink" xml:space="preserve" xmlns:serif="http://www.serif.com/" style="fill-rule:evenodd;clip-rule:evenodd;stroke-linejoin:round;stroke-miterlimit:2;">
    <g transform="matrix(1,0,0,1,-16.5783,0.0003)">
        <g>
            <g id="OBJECTS">
                <g>
                    <g transform="matrix(37.6888,0,0,37.6888,14.6562,50.5228)">
                        <path d="M0.371,-0.167C0.394,-0.167 0.413,-0.172 0.429,-0.182C0.445,-0.192 0.458,-0.205 0.468,-0.222C0.478,-0.238 0.485,-0.257 0.49,-0.278C0.495,-0.299 0.497,-0.322 0.497,-0.345L0.497,-0.71L0.692,-0.71L0.692,-0.345C0.692,-0.296 0.686,-0.25 0.673,-0.206C0.66,-0.164 0.641,-0.126 0.614,-0.095C0.587,-0.064 0.554,-0.039 0.514,-0.021C0.473,-0.003 0.426,0.006 0.371,0.006C0.314,0.006 0.266,-0.004 0.226,-0.023C0.185,-0.042 0.152,-0.067 0.126,-0.099C0.1,-0.131 0.081,-0.168 0.069,-0.211C0.057,-0.253 0.051,-0.298 0.051,-0.345L0.051,-0.71L0.246,-0.71L0.246,-0.345C0.246,-0.322 0.248,-0.299 0.253,-0.278C0.258,-0.256 0.265,-0.237 0.275,-0.221C0.285,-0.204 0.298,-0.191 0.314,-0.182C0.329,-0.172 0.348,-0.167 0.371,-0.167Z" style="fill:white;fill-rule:nonzero;"/>
                    </g>
                    <g transform="matrix(37.6888,0,0,37.6888,42.659,50.5228)">
                        <path d="M0.061,-0L0.061,-0.71L0.256,-0.71L0.256,-0.17L0.578,-0.17L0.578,-0L0.061,-0Z" style="fill:white;fill-rule:nonzero;"/>
                    </g>
                    <g transform="matrix(37.6888,0,0,37.6888,61.1265,50.5228)">
                        <path d="M0.614,-0.54L0.41,-0.54L0.41,-0L0.215,-0L0.215,-0.54L0.01,-0.54L0.01,-0.71L0.614,-0.71L0.614,-0.54Z" style="fill:white;fill-rule:nonzero;"/>
                    </g>
                    <g transform="matrix(37.6888,0,0,37.6888,84.6443,50.5228)">
                        <rect x="0.061" y="-0.71" width="0.195" height="0.71" style="fill:white;"/>
                    </g>
                    <g transform="matrix(37.6888,0,0,37.6888,151.694,50.5228)">
                        <path d="M0.598,-0L0.598,-0.374L0.479,-0.111L0.375,-0.111L0.256,-0.374L0.256,-0L0.061,-0L0.061,-0.71L0.274,-0.71L0.427,-0.376L0.581,-0.71L0.793,-0.71L0.793,-0L0.598,-0Z" style="fill:white;fill-rule:nonzero;"/>
                    </g>
                    <g transform="matrix(37.6888,0,0,37.6888,183.88,50.5228)">
                        <path d="M0.245,-0.71L0.423,-0.71L0.669,-0L0.471,-0L0.428,-0.139L0.239,-0.139L0.197,-0L-0.002,-0L0.245,-0.71ZM0.397,-0.269L0.334,-0.489L0.268,-0.269L0.397,-0.269Z" style="fill:white;fill-rule:nonzero;"/>
                    </g>
                    <g transform="matrix(37.6888,0,0,37.6888,206.569,50.5228)">
                        <path d="M0.614,-0.54L0.41,-0.54L0.41,-0L0.215,-0L0.215,-0.54L0.01,-0.54L0.01,-0.71L0.614,-0.71L0.614,-0.54Z" style="fill:white;fill-rule:nonzero;"/>
                    </g>
                    <g transform="matrix(37.6888,0,0,37.6888,230.086,50.5228)">
                        <path d="M0.567,-0.17L0.567,-0L0.061,-0L0.061,-0.71L0.558,-0.71L0.558,-0.54L0.256,-0.54L0.256,-0.44L0.514,-0.44L0.514,-0.282L0.256,-0.282L0.256,-0.17L0.567,-0.17Z" style="fill:white;fill-rule:nonzero;"/>
                    </g>
                </g>
                <g>
                    <g transform="matrix(37.6888,0,0,37.6888,35.0571,82.8197)">
                        <path d="M0.665,-0.182C0.665,-0.15 0.658,-0.123 0.645,-0.1C0.632,-0.077 0.613,-0.058 0.59,-0.043C0.567,-0.028 0.54,-0.018 0.508,-0.011C0.477,-0.004 0.445,-0 0.41,-0L0.061,-0L0.061,-0.71L0.473,-0.71C0.498,-0.71 0.52,-0.705 0.54,-0.694C0.56,-0.683 0.577,-0.67 0.591,-0.653C0.605,-0.635 0.616,-0.616 0.624,-0.595C0.631,-0.573 0.635,-0.551 0.635,-0.528C0.635,-0.495 0.626,-0.463 0.61,-0.433C0.593,-0.402 0.567,-0.379 0.533,-0.364C0.574,-0.352 0.606,-0.331 0.629,-0.302C0.653,-0.272 0.665,-0.232 0.665,-0.182ZM0.467,-0.222C0.467,-0.239 0.462,-0.254 0.453,-0.266C0.444,-0.277 0.432,-0.283 0.417,-0.283L0.256,-0.283L0.256,-0.164L0.41,-0.164C0.426,-0.164 0.44,-0.169 0.451,-0.179C0.462,-0.189 0.467,-0.203 0.467,-0.222ZM0.256,-0.544L0.256,-0.435L0.389,-0.435C0.402,-0.435 0.414,-0.439 0.426,-0.446C0.437,-0.453 0.442,-0.468 0.442,-0.49C0.442,-0.509 0.437,-0.523 0.428,-0.532C0.419,-0.54 0.408,-0.544 0.395,-0.544L0.256,-0.544Z" style="fill:white;fill-rule:nonzero;"/>
                    </g>
                    <g transform="matrix(37.6888,0,0,37.6888,61.0624,82.8197)">
                        <path d="M0.371,-0.167C0.394,-0.167 0.413,-0.172 0.429,-0.182C0.445,-0.192 0.458,-0.205 0.468,-0.222C0.478,-0.238 0.485,-0.257 0.49,-0.278C0.495,-0.299 0.497,-0.322 0.497,-0.345L0.497,-0.71L0.692,-0.71L0.692,-0.345C0.692,-0.296 0.686,-0.25 0.673,-0.206C0.66,-0.164 0.641,-0.126 0.614,-0.095C0.587,-0.064 0.554,-0.039 0.514,-0.021C0.473,-0.003 0.426,0.006 0.371,0.006C0.314,0.006 0.266,-0.004 0.226,-0.023C0.185,-0.042 0.152,-0.067 0.126,-0.099C0.1,-0.131 0.081,-0.168 0.069,-0.211C0.057,-0.253 0.051,-0.298 0.051,-0.345L0.051,-0.71L0.246,-0.71L0.246,-0.345C0.246,-0.322 0.248,-0.299 0.253,-0.278C0.258,-0.256 0.265,-0.237 0.275,-0.221C0.285,-0.204 0.298,-0.191 0.314,-0.182C0.329,-0.172 0.348,-0.167 0.371,-0.167Z" style="fill:white;fill-rule:nonzero;"/>
                    </g>
                    <g transform="matrix(37.6888,0,0,37.6888,89.0652,82.8197)">
                        <path d="M0.061,-0L0.061,-0.71L0.387,-0.71C0.422,-0.71 0.454,-0.703 0.483,-0.689C0.512,-0.674 0.538,-0.656 0.559,-0.632C0.58,-0.61 0.596,-0.583 0.608,-0.554C0.62,-0.524 0.626,-0.494 0.626,-0.464C0.626,-0.423 0.617,-0.384 0.599,-0.348C0.581,-0.313 0.556,-0.284 0.524,-0.261L0.674,-0L0.454,-0L0.329,-0.218L0.256,-0.218L0.256,-0L0.061,-0ZM0.256,-0.388L0.379,-0.388C0.391,-0.388 0.402,-0.395 0.412,-0.408C0.423,-0.421 0.428,-0.44 0.428,-0.464C0.428,-0.489 0.422,-0.507 0.41,-0.521C0.398,-0.534 0.386,-0.54 0.374,-0.54L0.256,-0.54L0.256,-0.388Z" style="fill:white;fill-rule:nonzero;"/>
                    </g>
                    <g transform="matrix(37.6888,0,0,37.6888,114.166,82.8197)">
                        <path d="M0.543,-0.059C0.492,-0.016 0.434,0.005 0.368,0.005C0.322,0.005 0.278,-0.003 0.236,-0.02C0.194,-0.036 0.157,-0.06 0.126,-0.091C0.095,-0.122 0.07,-0.161 0.051,-0.206C0.032,-0.251 0.023,-0.303 0.023,-0.361C0.023,-0.411 0.032,-0.458 0.051,-0.5C0.07,-0.544 0.095,-0.581 0.128,-0.613C0.161,-0.644 0.199,-0.669 0.244,-0.688C0.288,-0.706 0.336,-0.715 0.387,-0.715C0.419,-0.715 0.45,-0.712 0.479,-0.705C0.508,-0.698 0.536,-0.687 0.561,-0.674C0.586,-0.66 0.608,-0.644 0.628,-0.625C0.648,-0.606 0.664,-0.584 0.677,-0.56L0.532,-0.449C0.518,-0.477 0.497,-0.5 0.469,-0.517C0.441,-0.534 0.411,-0.542 0.38,-0.542C0.357,-0.542 0.335,-0.537 0.316,-0.528C0.297,-0.519 0.28,-0.506 0.266,-0.489C0.252,-0.472 0.241,-0.453 0.233,-0.43C0.225,-0.406 0.221,-0.381 0.221,-0.354C0.221,-0.326 0.225,-0.301 0.233,-0.278C0.241,-0.255 0.252,-0.236 0.267,-0.22C0.281,-0.203 0.298,-0.191 0.318,-0.182C0.338,-0.172 0.36,-0.168 0.385,-0.168C0.442,-0.168 0.492,-0.191 0.535,-0.238L0.412,-0.238L0.412,-0.378L0.704,-0.378L0.704,-0L0.543,-0L0.543,-0.059Z" style="fill:white;fill-rule:nonzero;"/>
                    </g>
                    <g transform="matrix(37.6888,0,0,37.6888,142.018,82.8197)">
                        <path d="M0.567,-0.17L0.567,-0L0.061,-0L0.061,-0.71L0.558,-0.71L0.558,-0.54L0.256,-0.54L0.256,-0.44L0.514,-0.44L0.514,-0.282L0.256,-0.282L0.256,-0.17L0.567,-0.17Z" style="fill:white;fill-rule:nonzero;"/>
                    </g>
                    <g transform="matrix(37.6888,0,0,37.6888,164.518,82.8197)">
                        <path d="M0.061,-0L0.061,-0.71L0.387,-0.71C0.422,-0.71 0.454,-0.703 0.483,-0.689C0.512,-0.674 0.538,-0.656 0.559,-0.632C0.58,-0.61 0.596,-0.583 0.608,-0.554C0.62,-0.524 0.626,-0.494 0.626,-0.464C0.626,-0.423 0.617,-0.384 0.599,-0.348C0.581,-0.313 0.556,-0.284 0.524,-0.261L0.674,-0L0.454,-0L0.329,-0.218L0.256,-0.218L0.256,-0L0.061,-0ZM0.256,-0.388L0.379,-0.388C0.391,-0.388 0.402,-0.395 0.412,-0.408C0.423,-0.421 0.428,-0.44 0.428,-0.464C0.428,-0.489 0.422,-0.507 0.41,-0.521C0.398,-0.534 0.386,-0.54 0.374,-0.54L0.256,-0.54L0.256,-0.388Z" style="fill:white;fill-rule:nonzero;"/>
                    </g>
                    <g transform="matrix(37.6888,0,0,37.6888,189.958,82.8197)">
                        <path d="M0.491,-0.478C0.471,-0.49 0.45,-0.501 0.429,-0.51C0.411,-0.518 0.391,-0.526 0.369,-0.533C0.346,-0.54 0.324,-0.543 0.303,-0.543C0.286,-0.543 0.272,-0.54 0.262,-0.535C0.251,-0.53 0.246,-0.521 0.246,-0.508C0.246,-0.499 0.249,-0.491 0.255,-0.485C0.261,-0.479 0.27,-0.473 0.281,-0.469C0.292,-0.464 0.306,-0.459 0.323,-0.454C0.339,-0.449 0.357,-0.444 0.378,-0.437C0.411,-0.427 0.44,-0.416 0.467,-0.404C0.493,-0.392 0.515,-0.378 0.534,-0.362C0.553,-0.345 0.567,-0.325 0.577,-0.302C0.587,-0.279 0.592,-0.25 0.592,-0.217C0.592,-0.174 0.584,-0.139 0.569,-0.11C0.553,-0.081 0.532,-0.057 0.506,-0.04C0.481,-0.023 0.452,-0.01 0.42,-0.003C0.387,0.005 0.355,0.009 0.322,0.009C0.296,0.009 0.269,0.007 0.242,0.003C0.215,-0.001 0.188,-0.007 0.161,-0.014C0.134,-0.021 0.108,-0.03 0.083,-0.04C0.058,-0.05 0.034,-0.061 0.013,-0.074L0.097,-0.245C0.12,-0.23 0.145,-0.217 0.17,-0.206C0.191,-0.196 0.216,-0.187 0.243,-0.179C0.27,-0.171 0.297,-0.167 0.325,-0.167C0.346,-0.167 0.361,-0.17 0.37,-0.175C0.378,-0.181 0.382,-0.189 0.382,-0.198C0.382,-0.208 0.378,-0.217 0.37,-0.224C0.361,-0.231 0.35,-0.237 0.335,-0.242C0.32,-0.247 0.304,-0.253 0.284,-0.258C0.266,-0.263 0.245,-0.27 0.224,-0.277C0.193,-0.288 0.166,-0.299 0.143,-0.312C0.12,-0.324 0.102,-0.338 0.087,-0.354C0.072,-0.369 0.062,-0.387 0.055,-0.407C0.048,-0.427 0.044,-0.45 0.044,-0.476C0.044,-0.515 0.051,-0.55 0.066,-0.58C0.08,-0.61 0.099,-0.635 0.124,-0.655C0.149,-0.675 0.177,-0.69 0.209,-0.701C0.24,-0.711 0.274,-0.716 0.309,-0.716C0.335,-0.716 0.36,-0.714 0.385,-0.709C0.41,-0.704 0.434,-0.697 0.457,-0.69C0.48,-0.682 0.501,-0.674 0.521,-0.665C0.541,-0.656 0.559,-0.647 0.575,-0.639L0.491,-0.478Z" style="fill:white;fill-rule:nonzero;"/>
                    </g>
                </g>
                <g transform="matrix(1,0,0,1,114.503,12.5891)">
                    <path d="M0,-2.473L-1.176,-4.855L-2.352,-2.473L-4.981,-2.091L-3.079,-0.237L-3.528,2.382L-1.176,1.146L1.176,2.382L0.726,-0.237L2.629,-2.091L0,-2.473Z" style="fill:white;fill-rule:nonzero;"/>
                </g>
                <g transform="matrix(1,0,0,1,106.45,15.5981)">
                    <path d="M0,-1.776L-0.844,-3.486L-1.689,-1.776L-3.577,-1.502L-2.211,-0.17L-2.533,1.71L-0.844,0.823L0.844,1.71L0.521,-0.17L1.888,-1.502L0,-1.776Z" style="fill:white;fill-rule:nonzero;"/>
                </g>
                <g transform="matrix(1,0,0,1,136.116,12.5891)">
                    <path d="M0,-2.473L-1.176,-4.855L-2.352,-2.473L-4.981,-2.091L-3.079,-0.237L-3.528,2.382L-1.176,1.146L1.176,2.382L0.727,-0.237L2.629,-2.091L0,-2.473Z" style="fill:white;fill-rule:nonzero;"/>
                </g>
                <g transform="matrix(1,0,0,1,145.393,15.3235)">
                    <path d="M0,-1.227L-1.888,-1.501L-2.732,-3.212L-3.577,-1.501L-5.464,-1.227L-4.098,0.105L-4.421,1.985L-2.732,1.097L-1.044,1.985L-1.366,0.105L0,-1.227Z" style="fill:white;fill-rule:nonzero;"/>
                </g>
                <g transform="matrix(1,0,0,1,104.629,49.9739)">
                    <path d="M0,-4.999L0,-3.061C0,-1.371 1.371,0 3.061,0L35.948,0C37.638,0 39.009,-1.371 39.009,-3.061L39.009,-4.999L0,-4.999Z" style="fill:white;fill-rule:nonzero;"/>
                </g>
                <g transform="matrix(1,0,0,1,144.397,38.7144)">
                    <path d="M0,-4.593L-40.526,-4.593C-41.423,-4.593 -42.149,-3.866 -42.149,-2.97L-42.149,-1.623C-42.149,-0.726 -41.423,0 -40.526,0L0,0C0.896,0 1.623,-0.726 1.623,-1.623L1.623,-2.97C1.623,-3.866 0.896,-4.593 0,-4.593" style="fill:white;fill-rule:nonzero;"/>
                </g>
                <g transform="matrix(1,0,0,1,138.885,23.3443)">
                    <path d="M0,2.386C-0.607,2.386 -1.543,1.678 -2.09,0.798C-2.631,-0.072 -2.576,-0.781 -1.968,-0.781C-1.361,-0.781 -0.426,-0.072 0.115,0.798C0.663,1.678 0.607,2.386 0,2.386M-6.029,4.244C-6.636,4.244 -7.572,3.535 -8.12,2.656C-8.66,1.785 -8.605,1.077 -7.998,1.077C-7.391,1.077 -6.455,1.785 -5.914,2.656C-5.367,3.535 -5.422,4.244 -6.029,4.244M-8.311,-4.274C-7.703,-4.274 -6.761,-3.556 -6.22,-2.686C-5.673,-1.806 -5.729,-1.098 -6.335,-1.098C-6.942,-1.098 -7.878,-1.806 -8.426,-2.686C-8.967,-3.556 -8.917,-4.274 -8.311,-4.274M-11.918,-6.97C-12.836,-5.19 -12.754,-4.193 -11.362,-0.301L-9.395,5.204L-17.186,-2.498C-17.3,-2.609 -18.925,-4.208 -19.917,-6.636C-28.181,-5.074 -34.255,0.373 -34.255,9.356L4.753,9.356C4.753,-0.453 -2.489,-6.049 -11.918,-6.97" style="fill:white;fill-rule:nonzero;"/>
                </g>
                <g transform="matrix(-0.498464,-0.866911,-0.866911,0.498464,120.677,9.33538)">
                    <path d="M-1.021,-3.479C2.043,-8.365 7.11,-6.363 7.11,-6.363C1.096,-6.028 2.472,-2.114 -1.021,1.52C-4.514,5.153 -10.108,3.537 -10.108,3.537C-3.353,2.319 -4.086,1.407 -1.021,-3.479" style="fill:white;fill-rule:nonzero;"/>
                </g>
                <g transform="matrix(-1,0,0,1,126.307,23.5039)">
                    <path d="M0.072,-19.862C-2.636,-14.481 1.445,-13.723 2.853,-8.883C4.261,-4.045 0.072,0 0.072,0C2.384,-6.464 1.228,-6.283 -1.481,-11.375C-4.189,-16.467 0.072,-19.862 0.072,-19.862" style="fill:white;fill-rule:nonzero;"/>
                </g>
                <g transform="matrix(1,0,0,1,141.642,40.136)">
                    <path d="M0,3.418C-1.337,3.418 -2.038,2.689 -2.6,2.104C-3.118,1.564 -3.526,1.139 -4.378,1.139C-5.23,1.139 -5.639,1.564 -6.156,2.104C-6.719,2.689 -7.419,3.418 -8.756,3.418C-10.093,3.418 -10.793,2.689 -11.355,2.104C-11.873,1.564 -12.282,1.139 -13.133,1.139C-13.985,1.139 -14.394,1.564 -14.911,2.104C-15.474,2.689 -16.173,3.418 -17.511,3.418C-18.848,3.418 -19.548,2.689 -20.11,2.104C-20.627,1.564 -21.037,1.139 -21.888,1.139C-22.739,1.139 -23.148,1.564 -23.666,2.104C-24.228,2.689 -24.928,3.418 -26.265,3.418C-27.602,3.418 -28.301,2.689 -28.864,2.104C-29.381,1.564 -29.79,1.139 -30.642,1.139C-31.493,1.139 -31.901,1.564 -32.418,2.104C-32.981,2.689 -33.681,3.418 -35.018,3.418C-36.354,3.418 -37.055,2.689 -37.617,2.104C-38.134,1.564 -38.543,1.139 -39.395,1.139C-39.709,1.139 -39.964,0.884 -39.964,0.569C-39.964,0.254 -39.709,0 -39.395,0C-38.058,0 -37.357,0.729 -36.795,1.314C-36.277,1.853 -35.869,2.278 -35.018,2.278C-34.167,2.278 -33.758,1.853 -33.24,1.314C-32.678,0.729 -31.978,0 -30.642,0C-29.304,0 -28.604,0.729 -28.042,1.314C-27.525,1.853 -27.116,2.278 -26.265,2.278C-25.413,2.278 -25.004,1.853 -24.487,1.314C-23.925,0.729 -23.225,0 -21.888,0C-20.551,0 -19.851,0.729 -19.289,1.314C-18.771,1.853 -18.362,2.278 -17.511,2.278C-16.659,2.278 -16.25,1.853 -15.733,1.314C-15.17,0.729 -14.47,0 -13.133,0C-11.796,0 -11.096,0.729 -10.534,1.314C-10.016,1.853 -9.607,2.278 -8.756,2.278C-7.904,2.278 -7.496,1.853 -6.978,1.314C-6.416,0.729 -5.716,0 -4.378,0C-3.041,0 -2.341,0.729 -1.778,1.314C-1.261,1.853 -0.852,2.278 0,2.278C0.852,2.278 1.26,1.853 1.778,1.314C2.34,0.729 3.041,0 4.378,0C4.692,0 4.948,0.254 4.948,0.569C4.948,0.884 4.692,1.139 4.378,1.139C3.526,1.139 3.117,1.564 2.6,2.104C2.037,2.689 1.337,3.418 0,3.418" style="fill:white;fill-rule:nonzero;"/>
                </g>
            </g>
        </g>
    </g>
</svg>
